<?xml version="1.0" standalone="no"?><!DOCTYPE svg PUBLIC "-//W3C//DTD SVG 1.1//EN" "http://www.w3.org/Graphics/SVG/1.1/DTD/svg11.dtd"><svg t="1749955518605" class="icon" viewBox="0 0 1024 1024" version="1.1" xmlns="http://www.w3.org/2000/svg" p-id="1537" xmlns:xlink="http://www.w3.org/1999/xlink" width="128" height="128"><path d="M512 85.333333c235.690667 0 426.666667 190.976 426.666667 426.666667s-190.976 426.666667-426.666667 426.666667S85.333333 747.690667 85.333333 512 276.309333 85.333333 512 85.333333z m0 40.64C299.349333 125.973333 125.973333 299.349333 125.973333 512c0 212.650667 173.376 386.026667 386.026667 386.026667 212.650667 0 386.026667-173.376 386.026667-386.026667 0-212.650667-173.376-386.026667-386.026667-386.026667z m165.248 188.266667a21.248 21.248 0 0 1 29.802667 0l1.344 1.365333c8.128 9.472 8.128 23.018667 0 31.146667L543.146667 512l165.248 163.904c8.128 9.472 8.128 23.018667 0 31.146667l-1.344 1.344a21.248 21.248 0 0 1-29.802667 0L512 543.146667l-165.248 166.613333a21.248 21.248 0 0 1-29.802667 0l-1.344-1.365333c-8.128-9.472-8.128-23.018667 0-31.146667L480.853333 512l-165.248-163.904c-8.128-9.472-8.128-23.018667 0-31.146667l1.344-1.344a21.248 21.248 0 0 1 29.802667 0L512 480.853333z" fill="#e6e6e6" p-id="1538"></path></svg>