<?xml version="1.0" standalone="no"?><!DOCTYPE svg PUBLIC "-//W3C//DTD SVG 1.1//EN" "http://www.w3.org/Graphics/SVG/1.1/DTD/svg11.dtd"><svg height="1024" node-id="1" sillyvg="true" template-height="1024" template-width="1024" version="1.1" viewBox="0 0 1024 1024" width="1024" xmlns="http://www.w3.org/2000/svg" xmlns:xlink="http://www.w3.org/1999/xlink"><defs node-id="76"></defs><g node-id="246"><g node-id="258"><path d="M 245.00 459.30 L 240.50 460.70 L 240.10 459.20 L 244.50 457.80 L 245.00 459.30 Z" fill="#777f99" fill-rule="nonzero" group-id="1,13" node-id="82" stroke="none" target-height="2.9000244" target-width="4.899994" target-x="240.1" target-y="457.8"></path></g><g node-id="259"><path d="M 231.20 462.70 L 221.80 463.50 L 221.80 461.90 L 231.10 461.10 L 231.20 462.70 Z M 212.30 463.20 L 202.90 461.70 L 203.20 460.20 L 212.40 461.70 L 212.30 463.20 Z M 193.80 459.10 L 185.10 455.40 L 185.80 454.00 L 194.30 457.70 L 193.80 459.10 Z M 176.90 450.60 L 169.30 444.90 L 170.30 443.70 L 177.70 449.30 L 176.90 450.60 Z M 162.50 438.20 L 156.60 430.80 L 157.90 429.90 L 163.70 437.10 L 162.50 438.20 Z M 153.00 422.00 L 151.60 422.70 L 149.50 418.40 L 147.70 414.10 L 149.20 413.50 L 153.00 422.00 Z M 146.40 404.70 L 144.90 405.10 L 143.90 400.40 L 143.20 395.80 L 144.80 395.60 L 146.40 404.70 Z M 144.10 386.30 L 142.50 386.30 L 142.60 381.60 L 143.10 376.80 L 144.70 377.00 L 144.10 386.30 Z M 146.40 367.90 L 144.90 367.50 L 146.20 362.90 L 147.80 358.50 L 149.30 359.10 L 146.40 367.90 Z M 153.20 350.60 L 151.80 349.90 L 156.80 341.80 L 158.10 342.70 L 153.20 350.60 Z" fill="#777f99" fill-rule="nonzero" group-id="1,14" node-id="87" stroke="none" target-height="121.70001" target-width="88.7" target-x="142.5" target-y="341.8"></path></g><path d="M 163.90 335.50 L 162.70 334.40 L 166.00 331.00 L 167.10 332.10 L 163.90 335.50 Z" fill="#777f99" fill-rule="nonzero" group-id="1,15" node-id="92" stroke="none" target-height="4.5" target-width="4.400009" target-x="162.7" target-y="331"></path></g><g node-id="247"><g node-id="261"><path d="M 217.90 212.10 L 216.50 211.20 L 218.80 205.90 L 220.20 206.90 L 217.90 212.10 Z" fill="#777f99" fill-rule="nonzero" group-id="2,16" node-id="100" stroke="none" target-height="6.200012" target-width="3.699997" target-x="216.5" target-y="205.9"></path></g><g node-id="262"><path d="M 354.00 238.90 L 352.10 227.80 L 353.60 227.20 L 355.60 238.50 L 354.00 238.90 Z M 349.10 217.20 L 345.10 207.10 L 346.50 206.10 L 350.60 216.50 L 349.10 217.20 Z M 340.20 197.60 L 334.40 189.00 L 335.50 187.60 L 341.40 196.40 L 340.20 197.60 Z M 225.00 197.50 L 223.80 196.30 L 226.60 191.80 L 229.70 187.50 L 230.80 188.90 L 225.00 197.50 Z M 327.80 181.30 L 324.20 177.80 L 320.50 174.80 L 321.30 173.10 L 328.70 179.80 L 327.80 181.30 Z M 237.40 181.30 L 236.40 179.70 L 243.80 173.00 L 244.60 174.70 L 237.40 181.30 Z M 312.80 169.50 L 304.50 165.40 L 305.00 163.50 L 313.50 167.70 L 312.80 169.50 Z M 252.50 169.40 L 251.90 167.60 L 256.10 165.40 L 260.40 163.40 L 260.90 165.30 L 252.50 169.40 Z M 295.90 162.60 L 287.10 161.20 L 287.20 159.20 L 296.20 160.60 L 295.90 162.60 Z M 269.40 162.60 L 269.10 160.60 L 278.10 159.20 L 278.20 161.20 L 269.40 162.60 Z" fill="#777f99" fill-rule="nonzero" group-id="2,17" node-id="105" stroke="none" target-height="79.7" target-width="131.8" target-x="223.8" target-y="159.2"></path></g><path d="M 356.50 256.30 L 354.90 256.20 L 354.90 250.30 L 356.50 250.20 L 356.50 256.30 Z" fill="#777f99" fill-rule="nonzero" group-id="2,18" node-id="110" stroke="none" target-height="6.099991" target-width="1.6000061" target-x="354.9" target-y="250.2"></path></g><g node-id="248"><path d="M 258.80 272.40 L 258.60 277.70 L 257.90 282.90 L 256.90 287.90 L 253.70 297.40 L 249.20 306.20 L 246.40 310.30 L 240.00 317.80 L 232.50 324.20 L 228.40 327.00 L 219.60 331.50 L 210.10 334.70 L 205.10 335.70 L 199.90 336.40 L 194.60 336.60 L 189.30 336.40 L 184.10 335.70 L 179.10 334.70 L 169.60 331.50 L 160.80 327.00 L 156.70 324.20 L 149.20 317.80 L 142.80 310.30 L 140.00 306.20 L 135.50 297.40 L 132.30 287.90 L 131.30 282.90 L 130.60 277.70 L 130.40 272.40 L 130.60 267.10 L 131.30 261.90 L 132.30 256.90 L 135.50 247.40 L 140.00 238.60 L 142.80 234.50 L 149.20 227.00 L 156.70 220.60 L 160.80 217.80 L 169.60 213.30 L 179.10 210.10 L 184.10 209.10 L 189.30 208.40 L 194.60 208.20 L 199.90 208.40 L 205.10 209.10 L 210.10 210.10 L 219.60 213.30 L 228.40 217.80 L 232.50 220.60 L 240.00 227.00 L 246.40 234.50 L 249.20 238.60 L 253.70 247.40 L 256.90 256.90 L 257.90 261.90 L 258.60 267.10 L 258.80 272.40 Z" fill="#367cff" fill-opacity="0.2" fill-rule="nonzero" group-id="3" node-id="116" stroke="none" target-height="128.40001" target-width="128.4" target-x="130.4" target-y="208.2"></path></g><g node-id="249"><g node-id="264"><path d="M 208.40 273.30 L 206.80 276.30 L 204.70 279.00 L 202.40 281.30 L 199.90 283.20 L 197.20 284.80 L 194.30 286.10 L 191.20 286.90 L 188.00 287.40 L 184.70 287.40 L 181.60 287.00 L 178.50 286.30 L 175.60 285.10 L 172.80 283.50 L 170.20 281.50 L 167.90 279.20 L 166.00 276.70 L 164.40 274.00 L 163.10 271.10 L 162.30 268.00 L 161.80 264.80 L 161.80 261.50 L 162.20 258.40 L 163.00 255.30 L 164.10 252.40 L 165.70 249.60 L 167.70 247.00 L 170.00 244.70 L 172.50 242.80 L 175.20 241.20 L 178.10 239.90 L 181.20 239.10 L 184.40 238.60 L 187.70 238.60 L 190.80 239.00 L 193.90 239.80 L 196.80 240.90 L 199.60 242.50 L 202.20 244.50 L 204.80 247.10 L 206.90 250.00 L 208.50 253.10 L 209.70 256.30 L 210.40 259.70 L 210.70 263.10 L 210.40 266.60 L 209.70 270.00 L 208.40 273.30 Z M 169.00 255.10 L 167.90 258.10 L 167.40 261.20 L 167.30 264.40 L 168.30 269.30 L 170.50 273.70 L 172.00 275.60 L 173.80 277.40 L 177.90 280.10 L 180.20 281.10 L 185.00 282.00 L 187.60 282.00 L 192.50 281.00 L 196.90 278.80 L 198.80 277.30 L 200.60 275.50 L 202.60 272.70 L 204.00 269.70 L 204.90 266.60 L 205.20 263.30 L 205.00 260.20 L 204.20 257.00 L 202.90 254.00 L 201.00 251.30 L 198.60 248.80 L 194.50 246.10 L 192.20 245.20 L 187.40 244.20 L 184.80 244.20 L 179.90 245.20 L 175.50 247.40 L 173.60 248.90 L 170.30 252.80 L 169.00 255.10 Z" fill="#ffffff" fill-rule="nonzero" group-id="4,19" node-id="123" stroke="none" target-height="48.799988" target-width="48.899994" target-x="161.8" target-y="238.6"></path></g><path d="M 227.10 304.60 L 225.60 306.00 L 224.60 306.10 L 223.50 305.90 L 222.60 305.30 L 199.40 280.90 L 198.80 280.00 L 198.90 277.90 L 199.50 277.00 L 200.40 276.40 L 202.50 276.50 L 203.40 277.10 L 226.60 301.50 L 227.30 303.00 L 227.10 304.60 Z" fill="#ffffff" fill-rule="nonzero" group-id="4,20" node-id="128" stroke="none" target-height="29.700012" target-width="28.5" target-x="198.8" target-y="276.4"></path></g><g node-id="250"><g node-id="266"><path d="M 576.50 263.70 L 575.00 263.20 L 576.50 258.70 L 578.00 259.20 L 576.50 263.70 Z" fill="#777f99" fill-rule="nonzero" group-id="5,21" node-id="136" stroke="none" target-height="5" target-width="3" target-x="575" target-y="258.7"></path></g><g node-id="267"><path d="M 878.70 278.60 L 876.50 269.70 L 878.00 269.30 L 880.20 278.30 L 878.70 278.60 Z M 873.80 260.90 L 870.60 252.30 L 872.00 251.70 L 875.30 260.40 L 873.80 260.90 Z M 581.40 250.70 L 580.00 250.10 L 583.90 241.60 L 585.30 242.30 L 581.40 250.70 Z M 866.80 243.90 L 862.60 235.70 L 864.00 234.90 L 868.30 243.20 L 866.80 243.90 Z M 589.50 234.20 L 588.10 233.40 L 592.90 225.50 L 594.20 226.40 L 589.50 234.20 Z M 857.90 227.80 L 852.70 220.20 L 854.00 219.30 L 859.20 227.00 L 857.90 227.80 Z M 599.50 218.80 L 598.20 217.90 L 603.90 210.60 L 605.10 211.60 L 599.50 218.80 Z M 847.10 212.80 L 841.10 205.80 L 842.30 204.70 L 848.40 211.70 L 847.10 212.80 Z M 611.30 204.60 L 610.20 203.50 L 613.40 200.10 L 616.80 196.90 L 617.90 198.00 L 611.30 204.60 Z M 834.70 199.20 L 827.90 193.00 L 828.90 191.80 L 835.80 198.10 L 834.70 199.20 Z M 624.70 191.90 L 623.70 190.70 L 631.00 184.90 L 631.90 186.20 L 624.70 191.90 Z M 820.70 187.20 L 813.20 181.80 L 814.10 180.50 L 821.70 185.90 L 820.70 187.20 Z M 639.40 180.90 L 638.50 179.60 L 646.40 174.70 L 647.20 176.10 L 639.40 180.90 Z M 805.40 176.90 L 797.30 172.50 L 798.00 171.10 L 806.10 175.60 L 805.40 176.90 Z M 655.40 171.70 L 654.70 170.30 L 663.10 166.40 L 663.70 167.80 L 655.40 171.70 Z M 789.10 168.50 L 780.60 165.00 L 781.10 163.50 L 789.70 167.00 L 789.10 168.50 Z M 672.30 164.40 L 671.80 162.90 L 680.60 160.00 L 681.00 161.50 L 672.30 164.40 Z M 771.80 162.00 L 762.90 159.50 L 763.30 158.00 L 772.30 160.50 L 771.80 162.00 Z M 689.90 159.20 L 689.50 157.70 L 698.60 155.80 L 698.90 157.30 L 689.90 159.20 Z M 753.90 157.60 L 744.80 156.20 L 745.00 154.60 L 754.20 156.00 L 753.90 157.60 Z M 708.10 156.00 L 707.90 154.40 L 717.20 153.60 L 717.30 155.20 L 708.10 156.00 Z M 735.70 155.40 L 726.50 155.10 L 726.50 153.50 L 735.80 153.80 L 735.70 155.40 Z" fill="#777f99" fill-rule="nonzero" group-id="5,22" node-id="141" stroke="none" target-height="125.100006" target-width="300.2" target-x="580" target-y="153.5"></path></g><path d="M 881.10 292.30 L 880.50 287.70 L 882.00 287.50 L 882.70 292.20 L 881.10 292.30 Z" fill="#777f99" fill-rule="nonzero" group-id="5,23" node-id="146" stroke="none" target-height="4.799988" target-width="2.2000122" target-x="880.5" target-y="287.5"></path></g><g node-id="251"><g node-id="269"><path d="M 908.60 345.40 L 905.10 342.30 L 906.10 341.10 L 909.60 344.20 L 908.60 345.40 Z" fill="#777f99" fill-rule="nonzero" group-id="6,24" node-id="154" stroke="none" target-height="4.299988" target-width="4.5" target-x="905.1" target-y="341.1"></path></g><g node-id="270"><path d="M 837.60 534.70 L 837.60 533.10 L 846.70 532.50 L 846.90 534.10 L 837.60 534.70 Z M 828.30 534.60 L 819.10 533.70 L 819.30 532.20 L 828.40 533.10 L 828.30 534.60 Z M 856.10 532.70 L 855.80 531.20 L 864.70 529.10 L 865.10 530.60 L 856.10 532.70 Z M 873.90 527.60 L 873.30 526.10 L 881.70 522.50 L 882.40 523.90 L 873.90 527.60 Z M 890.70 519.50 L 889.90 518.20 L 897.60 513.20 L 898.50 514.50 L 890.70 519.50 Z M 905.80 508.80 L 904.80 507.60 L 911.50 501.40 L 912.60 502.50 L 905.80 508.80 Z M 918.90 495.60 L 917.70 494.60 L 923.30 487.40 L 924.60 488.30 L 918.90 495.60 Z M 929.60 480.40 L 928.30 479.60 L 932.60 471.50 L 934.00 472.20 L 929.60 480.40 Z M 937.70 463.70 L 936.20 463.10 L 939.10 454.40 L 940.60 454.80 L 937.70 463.70 Z M 942.70 445.80 L 941.20 445.50 L 942.60 436.40 L 944.20 436.60 L 942.70 445.80 Z M 944.70 427.40 L 943.10 427.40 L 942.90 418.20 L 944.50 418.10 L 944.70 427.40 Z M 942.00 409.10 L 940.30 400.10 L 941.80 399.70 L 943.50 408.80 L 942.00 409.10 Z M 937.90 391.20 L 934.70 382.60 L 936.10 382.00 L 939.30 390.70 L 937.90 391.20 Z M 930.80 374.40 L 926.20 366.50 L 927.50 365.70 L 932.20 373.70 L 930.80 374.40 Z M 920.90 358.90 L 915.00 351.90 L 916.20 350.80 L 922.20 357.90 L 920.90 358.90 Z" fill="#777f99" fill-rule="nonzero" group-id="6,25" node-id="159" stroke="none" target-height="183.90002" target-width="125.60004" target-x="819.1" target-y="350.8"></path></g><path d="M 809.90 532.00 L 805.30 530.80 L 805.70 529.30 L 810.20 530.40 L 809.90 532.00 Z" fill="#777f99" fill-rule="nonzero" group-id="6,26" node-id="164" stroke="none" target-height="2.7000122" target-width="4.9000244" target-x="805.3" target-y="529.3"></path></g><path d="M 957.90 346.00 L 957.60 351.70 L 956.80 357.10 L 955.40 362.30 L 953.60 367.30 L 951.30 372.20 L 948.50 376.70 L 945.40 380.80 L 941.80 384.70 L 937.90 388.30 L 933.80 391.40 L 929.30 394.20 L 924.40 396.50 L 919.40 398.30 L 914.20 399.70 L 908.80 400.50 L 903.10 400.80 L 897.40 400.50 L 892.00 399.70 L 886.80 398.30 L 881.80 396.50 L 876.90 394.20 L 872.40 391.40 L 868.30 388.30 L 864.40 384.70 L 860.80 380.80 L 857.70 376.70 L 854.90 372.20 L 852.60 367.30 L 850.80 362.30 L 849.40 357.10 L 848.60 351.70 L 848.30 346.00 L 848.60 340.30 L 849.40 334.90 L 850.80 329.70 L 852.60 324.70 L 854.90 319.80 L 857.70 315.30 L 860.80 311.20 L 864.40 307.30 L 868.30 303.70 L 872.40 300.60 L 876.90 297.80 L 881.80 295.50 L 886.80 293.70 L 892.00 292.30 L 897.40 291.50 L 903.10 291.20 L 908.80 291.50 L 914.20 292.30 L 919.40 293.70 L 924.40 295.50 L 929.30 297.80 L 933.80 300.60 L 937.90 303.70 L 941.80 307.30 L 945.40 311.20 L 948.50 315.30 L 951.30 319.80 L 953.60 324.70 L 955.40 329.70 L 956.80 334.90 L 957.60 340.30 L 957.90 346.00 Z" fill="#367cff" fill-rule="nonzero" node-id="168" stroke="none" target-height="109.599976" target-width="109.60004" target-x="848.3" target-y="291.2"></path><path d="M 945.00 346.00 L 944.80 350.40 L 944.10 354.50 L 943.10 358.50 L 941.70 362.30 L 937.80 369.40 L 932.70 375.60 L 926.50 380.70 L 919.40 384.60 L 915.60 386.00 L 911.60 387.00 L 907.50 387.70 L 903.10 387.90 L 898.70 387.70 L 894.60 387.00 L 890.60 386.00 L 886.80 384.60 L 883.10 382.80 L 876.50 378.30 L 870.80 372.60 L 866.30 366.00 L 863.10 358.50 L 862.10 354.50 L 861.40 350.40 L 861.20 346.00 L 861.40 341.60 L 862.10 337.50 L 863.10 333.50 L 866.30 326.00 L 870.80 319.40 L 876.50 313.70 L 879.70 311.30 L 886.80 307.40 L 890.60 306.00 L 894.60 305.00 L 898.70 304.30 L 903.10 304.10 L 907.50 304.30 L 911.60 305.00 L 915.60 306.00 L 919.40 307.40 L 926.50 311.30 L 932.70 316.40 L 937.80 322.60 L 941.70 329.70 L 943.10 333.50 L 944.10 337.50 L 944.80 341.60 L 945.00 346.00 Z" fill="#ffffff" fill-rule="nonzero" node-id="170" stroke="none" target-height="83.79999" target-width="83.79999" target-x="861.2" target-y="304.1"></path><path d="M 932.10 346.00 L 931.80 350.00 L 931.10 353.70 L 929.80 357.30 L 928.10 360.70 L 926.10 363.70 L 923.60 366.50 L 920.80 369.00 L 917.80 371.00 L 914.40 372.70 L 910.80 374.00 L 907.10 374.70 L 903.10 375.00 L 899.10 374.70 L 895.40 374.00 L 891.80 372.70 L 888.40 371.00 L 885.40 369.00 L 882.60 366.50 L 880.10 363.70 L 878.10 360.70 L 876.40 357.30 L 875.10 353.70 L 874.40 350.00 L 874.10 346.00 L 874.40 342.00 L 875.10 338.30 L 876.40 334.70 L 878.10 331.30 L 880.10 328.30 L 882.60 325.50 L 885.40 323.00 L 888.40 321.00 L 891.80 319.30 L 895.40 318.00 L 899.10 317.30 L 903.10 317.00 L 907.10 317.30 L 910.80 318.00 L 914.40 319.30 L 917.80 321.00 L 920.80 323.00 L 923.60 325.50 L 926.10 328.30 L 928.10 331.30 L 929.80 334.70 L 931.10 338.30 L 931.80 342.00 L 932.10 346.00 Z" fill="#367cff" fill-rule="nonzero" node-id="172" stroke="none" target-height="58" target-width="58" target-x="874.1" target-y="317"></path><path d="M 273.80 218.00 L 801.30 218.00 L 804.50 218.30 L 807.60 219.00 L 810.50 220.20 L 813.20 221.80 L 815.60 223.80 L 817.90 226.30 L 819.90 228.90 L 821.60 231.90 L 823.00 235.20 L 824.00 238.70 L 824.60 242.30 L 824.80 246.20 L 824.80 710.10 L 824.60 714.00 L 824.00 717.60 L 823.00 721.10 L 821.60 724.40 L 819.90 727.40 L 817.90 730.10 L 815.60 732.50 L 813.20 734.50 L 810.50 736.10 L 807.60 737.30 L 804.50 738.00 L 801.30 738.30 L 273.80 738.30 L 270.60 738.00 L 267.50 737.30 L 264.60 736.10 L 261.90 734.50 L 259.50 732.50 L 257.20 730.10 L 255.20 727.40 L 253.50 724.40 L 252.10 721.10 L 251.10 717.60 L 250.50 714.00 L 250.30 710.10 L 250.30 246.20 L 250.50 242.30 L 251.20 238.70 L 252.20 235.20 L 253.60 231.90 L 255.30 228.90 L 257.30 226.30 L 259.50 223.80 L 262.00 221.80 L 264.70 220.20 L 267.60 219.00 L 270.60 218.30 L 273.80 218.00 Z" fill="#bad6f7" fill-rule="nonzero" node-id="174" stroke="none" target-height="520.3" target-width="574.5" target-x="250.3" target-y="218"></path><g node-id="252"><path d="M 287.30 265.00 L 786.20 265.00 L 788.50 265.20 L 792.50 266.70 L 795.80 269.40 L 797.90 273.10 L 798.70 277.50 L 798.70 346.60 L 798.50 348.90 L 797.90 351.00 L 795.70 354.70 L 792.50 357.40 L 788.50 358.90 L 786.20 359.10 L 287.30 359.10 L 285.00 358.90 L 282.90 358.30 L 279.20 356.10 L 276.50 352.90 L 275.00 348.90 L 274.80 346.60 L 274.80 277.50 L 275.60 273.20 L 276.50 271.20 L 279.20 268.00 L 282.90 265.80 L 287.30 265.00 Z" fill="#ffffff" fill-rule="nonzero" group-id="7" node-id="178" stroke="none" target-height="94.100006" target-width="523.9" target-x="274.8" target-y="265"></path></g><path d="M 300.70 281.40 L 435.90 281.40 L 437.60 281.60 L 439.10 282.30 L 440.40 283.20 L 441.30 284.50 L 442.00 286.00 L 442.20 287.70 L 442.00 289.40 L 441.30 290.90 L 440.40 292.20 L 439.10 293.10 L 437.60 293.80 L 435.90 294.00 L 300.70 294.00 L 299.00 293.80 L 297.50 293.10 L 296.20 292.20 L 295.30 290.90 L 294.60 289.40 L 294.40 287.70 L 294.60 286.00 L 295.30 284.50 L 296.20 283.20 L 297.50 282.30 L 299.00 281.60 L 300.70 281.40 Z" fill="#3a3a77" fill-rule="nonzero" node-id="181" stroke="none" target-height="12.600006" target-width="147.80002" target-x="294.4" target-y="281.4"></path><g node-id="253"><path d="M 548.70 343.70 L 294.40 343.70 L 293.90 343.50 L 293.60 342.90 L 293.80 342.40 L 294.40 342.10 L 548.70 342.10 L 549.30 342.30 L 549.50 342.90 L 549.30 343.40 L 548.70 343.70 Z" fill="#cedfff" fill-rule="nonzero" group-id="8" node-id="185" stroke="none" target-height="1.6000061" target-width="255.9" target-x="293.6" target-y="342.1"></path></g><g node-id="254"><path d="M 777.00 327.00 L 294.40 327.00 L 293.90 326.80 L 293.60 326.20 L 293.80 325.60 L 294.40 325.40 L 777.00 325.40 L 777.50 325.70 L 777.80 326.20 L 777.60 326.80 L 777.00 327.00 Z" fill="#cedfff" fill-rule="nonzero" group-id="9" node-id="190" stroke="none" target-height="1.6000061" target-width="484.19998" target-x="293.6" target-y="325.4"></path></g><g node-id="255"><path d="M 777.00 310.40 L 294.40 310.40 L 293.90 310.20 L 293.60 309.60 L 293.80 309.10 L 294.40 308.80 L 777.00 308.80 L 777.50 309.10 L 777.80 309.60 L 777.60 310.10 L 777.00 310.40 Z" fill="#cedfff" fill-rule="nonzero" group-id="10" node-id="195" stroke="none" target-height="1.6000061" target-width="484.19998" target-x="293.6" target-y="308.8"></path></g><path d="M 788.50 700.30 L 282.70 700.30 L 280.50 700.00 L 278.60 699.30 L 277.00 698.10 L 275.70 696.70 L 274.90 694.90 L 274.60 693.00 L 274.60 395.10 L 274.90 393.10 L 275.70 391.40 L 277.00 389.90 L 278.60 388.80 L 280.50 388.10 L 282.70 387.80 L 788.50 387.80 L 790.70 388.10 L 792.60 388.80 L 794.20 390.00 L 795.50 391.40 L 796.30 393.20 L 796.60 395.10 L 796.60 692.90 L 796.30 694.90 L 795.50 696.60 L 794.20 698.10 L 792.60 699.30 L 790.70 700.00 L 788.50 700.30" fill="#ffffff" fill-rule="evenodd" node-id="198" stroke="none" target-height="312.5" target-width="522" target-x="274.6" target-y="387.8"></path><path d="M 304.80 683.50 L 570.10 683.50 L 570.10 679.00 L 304.80 679.00 Z" fill="#dee6ff" fill-rule="evenodd" node-id="200" stroke="none" target-height="4.5" target-width="265.3" target-x="304.8" target-y="679"></path><path d="M 319.50 679.00 L 347.70 679.00 L 347.70 456.00 L 319.50 456.00 Z" fill="#dee6ff" fill-rule="evenodd" node-id="202" stroke="none" target-height="223" target-width="28.200012" target-x="319.5" target-y="456"></path><path d="M 367.60 679.00 L 395.80 679.00 L 395.80 532.50 L 367.60 532.50 Z" fill="#dee6ff" fill-rule="evenodd" node-id="204" stroke="none" target-height="146.5" target-width="28.199982" target-x="367.6" target-y="532.5"></path><path d="M 415.50 679.00 L 443.80 679.00 L 443.80 605.70 L 415.50 605.70 Z" fill="#3a3a77" fill-rule="evenodd" node-id="206" stroke="none" target-height="73.29999" target-width="28.299988" target-x="415.5" target-y="605.7"></path><path d="M 468.00 680.50 L 496.30 680.50 L 496.30 507.50 L 468.00 507.50 Z" fill="#dee6ff" fill-rule="evenodd" node-id="208" stroke="none" target-height="173" target-width="28.299988" target-x="468" target-y="507.5"></path><path d="M 520.00 678.90 L 548.20 678.90 L 548.20 431.40 L 520.00 431.40 Z" fill="#fe9f39" fill-rule="evenodd" node-id="210" stroke="none" target-height="247.50003" target-width="28.200012" target-x="520" target-y="431.4"></path><path d="M 734.30 485.50 L 733.50 494.80 L 731.40 503.50 L 729.20 509.00 L 726.60 514.20 L 723.30 519.10 L 719.70 523.60 L 715.60 527.70 L 711.10 531.30 L 706.20 534.60 L 701.00 537.20 L 695.50 539.40 L 691.20 540.60 L 682.20 542.10 L 677.50 542.30 L 668.20 541.50 L 659.50 539.40 L 654.00 537.20 L 648.80 534.60 L 643.90 531.30 L 639.40 527.70 L 635.30 523.60 L 631.70 519.10 L 628.40 514.20 L 625.80 509.00 L 623.60 503.50 L 622.40 499.20 L 620.90 490.20 L 620.90 480.80 L 621.50 476.20 L 623.60 467.50 L 625.80 462.00 L 628.40 456.80 L 631.70 451.90 L 635.30 447.40 L 639.40 443.30 L 643.90 439.70 L 648.80 436.40 L 654.00 433.80 L 659.50 431.60 L 663.80 430.40 L 672.80 428.90 L 677.50 428.70 L 682.20 428.90 L 691.20 430.40 L 695.40 431.60 L 701.00 433.80 L 706.10 436.40 L 711.00 439.70 L 715.50 443.30 L 719.60 447.40 L 723.30 451.90 L 726.50 456.80 L 729.20 462.00 L 731.40 467.50 L 733.50 476.20 L 734.30 485.50" fill="#dee6ff" fill-rule="evenodd" node-id="212" stroke="none" target-height="113.599976" target-width="113.39996" target-x="620.9" target-y="428.7"></path><path d="M 677.50 485.50 L 732.30 470.50 L 730.50 465.10 L 728.30 460.00 L 725.60 455.20 L 722.40 450.70 L 718.80 446.50 L 714.80 442.70 L 710.50 439.30 L 705.90 436.30 L 700.90 433.80 L 695.70 431.80 L 690.30 430.20 L 684.60 429.20 L 677.50 485.50 Z" fill="#3a3a77" fill-rule="evenodd" node-id="214" stroke="none" target-height="56.299988" target-width="54.799988" target-x="677.5" target-y="429.2"></path><path d="M 677.50 668.10 L 672.90 667.90 L 668.60 667.20 L 664.40 666.10 L 660.40 664.60 L 656.50 662.80 L 652.90 660.60 L 649.50 658.10 L 646.40 655.20 L 641.00 648.70 L 638.80 645.10 L 637.00 641.20 L 635.50 637.20 L 634.40 633.00 L 633.70 628.70 L 633.50 624.10 L 633.70 619.50 L 634.40 615.20 L 635.50 611.00 L 637.00 607.00 L 638.80 603.10 L 641.00 599.50 L 643.50 596.10 L 649.50 590.10 L 652.90 587.60 L 656.50 585.40 L 660.40 583.60 L 664.40 582.10 L 668.60 581.00 L 672.90 580.30 L 677.50 580.10 L 682.10 580.30 L 686.40 581.00 L 690.60 582.10 L 694.60 583.60 L 698.50 585.40 L 702.10 587.60 L 705.50 590.10 L 708.60 593.00 L 711.50 596.10 L 714.00 599.50 L 716.20 603.10 L 718.00 607.00 L 719.50 611.00 L 720.60 615.20 L 721.30 619.50 L 721.50 624.10 L 721.20 628.70 L 720.60 633.00 L 719.50 637.20 L 718.00 641.20 L 716.10 645.10 L 713.90 648.70 L 711.40 652.10 L 708.50 655.20 L 705.40 658.10 L 702.00 660.60 L 698.40 662.80 L 694.60 664.60 L 690.60 666.10 L 686.40 667.20 L 682.00 667.90 L 677.50 668.10 M 677.50 567.30 L 672.80 567.50 L 663.80 569.00 L 659.50 570.20 L 654.00 572.40 L 648.80 575.00 L 643.90 578.30 L 639.40 581.90 L 635.30 586.00 L 631.70 590.50 L 628.40 595.40 L 625.80 600.60 L 623.60 606.10 L 621.50 614.80 L 620.70 624.10 L 621.50 633.40 L 623.60 642.10 L 625.80 647.60 L 628.40 652.80 L 631.70 657.70 L 635.30 662.20 L 639.40 666.30 L 643.90 669.90 L 648.80 673.20 L 654.00 675.80 L 659.50 678.00 L 663.80 679.20 L 672.80 680.70 L 677.50 680.90 L 682.20 680.70 L 686.80 680.10 L 695.50 678.00 L 701.00 675.80 L 706.20 673.20 L 711.10 669.90 L 715.60 666.30 L 719.70 662.20 L 723.30 657.70 L 726.60 652.80 L 729.20 647.60 L 731.40 642.10 L 732.60 637.80 L 734.10 628.80 L 734.30 624.10 L 733.50 614.80 L 731.40 606.20 L 729.20 600.60 L 726.50 595.50 L 723.30 590.60 L 719.60 586.10 L 715.50 582.00 L 711.00 578.30 L 706.10 575.10 L 701.00 572.40 L 695.40 570.20 L 691.20 569.00 L 682.20 567.50 L 677.50 567.30" fill="#dee6ff" fill-rule="evenodd" node-id="216" stroke="none" target-height="113.60004" target-width="113.599976" target-x="620.7" target-y="567.3"></path><path d="M 734.10 627.70 L 733.90 618.00 L 732.90 612.20 L 731.40 606.60 L 729.40 601.10 L 726.80 596.10 L 723.80 591.30 L 720.20 586.80 L 716.30 582.70 L 712.00 579.10 L 707.40 575.80 L 702.40 573.10 L 697.10 570.80 L 692.70 582.80 L 696.80 584.60 L 700.70 586.70 L 704.30 589.20 L 707.60 592.00 L 710.70 595.20 L 713.30 598.60 L 715.70 602.30 L 717.70 606.30 L 719.30 610.50 L 720.40 614.80 L 721.10 619.30 L 721.30 626.90 L 734.10 627.70 Z" fill="#3a3a77" fill-rule="evenodd" node-id="218" stroke="none" target-height="56.900024" target-width="41.399963" target-x="692.7" target-y="570.8"></path><path d="M 746.70 838.40 L 746.70 767.10 L 699.10 767.10 L 699.10 838.40 L 699.40 839.30 L 720.20 851.50 L 721.50 852.00 L 723.10 852.10 L 726.10 851.30 L 745.20 840.30 L 746.20 839.50 L 746.70 838.40 Z" fill="#949fff" fill-rule="nonzero" node-id="220" stroke="none" target-height="85" target-width="47.600037" target-x="699.1" target-y="767.1"></path><path d="M 720.20 780.40 L 700.10 768.80 L 699.30 768.00 L 699.10 767.10 L 699.50 766.30 L 700.50 765.40 L 719.60 754.40 L 721.10 753.80 L 724.20 753.70 L 725.50 754.10 L 745.60 765.70 L 746.40 766.50 L 746.60 767.40 L 746.20 768.20 L 745.20 769.10 L 726.10 780.10 L 723.10 780.90 L 720.20 780.40 Z" fill="#dee6ff" fill-rule="nonzero" node-id="222" stroke="none" target-height="27.200012" target-width="47.5" target-x="699.1" target-y="753.7"></path><path d="M 115.50 836.70 L 115.50 662.50 L 67.90 662.50 L 67.90 836.70 L 68.20 837.60 L 68.90 838.20 L 89.00 849.80 L 90.30 850.30 L 91.90 850.40 L 94.90 849.60 L 114.00 838.60 L 114.90 837.80 L 115.50 836.70 Z" fill="#dee1f0" fill-rule="nonzero" node-id="224" stroke="none" target-height="187.90002" target-width="47.6" target-x="67.9" target-y="662.5"></path><g node-id="256"><path d="M 89.00 675.70 L 68.90 664.10 L 68.10 663.30 L 67.90 662.40 L 68.30 661.60 L 69.30 660.70 L 88.40 649.70 L 91.40 648.90 L 94.30 649.40 L 114.40 661.00 L 115.20 661.80 L 115.40 662.70 L 115.00 663.50 L 114.00 664.40 L 94.90 675.40 L 93.50 676.00 L 91.90 676.30 L 90.30 676.20 L 89.00 675.70 Z" fill="#fafbfd" fill-rule="nonzero" group-id="11" node-id="227" stroke="none" target-height="27.399963" target-width="47.5" target-x="67.9" target-y="648.9"></path></g><g node-id="257"><g node-id="272"><path d="M 985.50 858.30 L 38.50 858.30 L 38.80 852.10 L 39.60 849.20 L 40.80 846.60 L 42.50 844.20 L 44.50 842.20 L 46.90 840.50 L 49.50 839.30 L 52.40 838.50 L 55.50 838.20 L 968.50 838.20 L 971.60 838.50 L 974.50 839.30 L 977.10 840.50 L 979.50 842.20 L 981.50 844.20 L 983.20 846.60 L 984.40 849.20 L 985.20 852.10 L 985.50 858.30 Z" fill="#b7cdeb" fill-rule="nonzero" group-id="12,27" node-id="234" stroke="none" target-height="20.099976" target-width="947" target-x="38.5" target-y="838.2"></path></g></g><path d="M 781.10 806.50 L 779.10 811.10 L 777.70 815.60 L 777.10 818.80 L 777.40 831.00 L 777.90 833.60 L 778.80 836.00 L 780.20 838.20 L 782.10 840.10 L 784.20 841.70 L 787.10 843.00 L 790.60 843.90 L 795.30 844.40 L 821.60 845.20 L 827.70 844.70 L 833.50 843.60 L 839.10 842.00 L 844.50 839.90 L 849.70 837.30 L 854.80 834.10 L 858.70 831.20 L 860.40 829.50 L 862.30 826.00 L 862.90 818.70 L 863.50 817.10 L 864.70 815.50 L 875.40 811.70 L 897.10 805.20 L 901.90 803.00 L 903.80 801.50 L 905.20 799.60 L 906.40 796.30 L 906.90 792.40 L 907.60 790.90 L 910.10 788.30 L 913.30 786.20 L 918.60 783.50 L 937.90 775.70 L 947.90 770.00 L 949.50 768.20 L 949.90 767.20 L 949.90 763.00 L 950.30 760.40 L 951.00 758.20 L 953.50 754.10 L 958.00 750.00 L 965.80 743.90 L 970.10 739.70 L 974.00 735.10 L 974.00 729.20 L 972.70 726.80 L 971.10 724.70 L 969.20 723.00 L 964.80 720.40 L 962.30 719.60 L 958.40 718.90 L 954.40 718.80 L 950.50 719.30 L 940.30 722.20 L 934.40 722.50 L 931.60 722.00 L 926.10 720.00 L 917.70 714.60 L 914.80 713.50 L 911.70 712.90 L 908.60 712.90 L 905.30 713.40 L 902.00 714.50 L 898.90 715.90 L 895.80 717.90 L 892.90 720.30 L 882.90 730.00 L 880.20 731.70 L 877.40 732.70 L 874.40 733.30 L 871.20 733.30 L 864.40 732.30 L 861.20 732.30 L 858.40 732.90 L 855.60 733.90 L 852.90 735.50 L 850.20 737.80 L 845.80 742.50 L 833.90 757.60 L 830.50 761.10 L 826.60 763.30 L 824.40 763.80 L 819.90 763.90 L 818.10 764.30 L 814.80 765.90 L 809.20 769.90 L 804.00 774.10 L 799.30 778.70 L 794.90 783.60 L 790.90 788.80 L 787.30 794.40 L 784.00 800.30 L 781.10 806.50" fill="#b1c6d9" fill-rule="nonzero" node-id="238" stroke="none" target-height="132.29999" target-width="196.90002" target-x="777.1" target-y="712.9"></path><path d="M 190.10 807.80 L 185.40 803.00 L 182.70 800.90 L 179.80 799.10 L 176.60 797.90 L 171.40 796.70 L 170.00 795.90 L 167.00 792.70 L 163.30 787.30 L 160.90 784.40 L 155.90 780.00 L 153.50 778.70 L 151.70 778.20 L 149.80 778.20 L 145.50 779.00 L 143.60 779.10 L 140.00 778.00 L 138.40 776.90 L 134.40 772.80 L 131.80 770.60 L 126.00 767.00 L 123.30 766.30 L 119.10 767.00 L 117.30 767.70 L 112.50 771.10 L 110.30 772.30 L 108.20 772.90 L 106.00 772.80 L 99.70 771.20 L 92.60 770.90 L 90.20 771.30 L 88.10 772.20 L 86.30 773.60 L 84.70 775.40 L 82.90 779.00 L 83.40 780.90 L 85.70 783.50 L 96.10 792.90 L 98.20 795.70 L 98.10 798.60 L 99.70 801.20 L 101.20 802.70 L 103.80 804.40 L 114.90 809.00 L 120.80 812.10 L 123.20 814.40 L 123.90 815.90 L 124.50 819.10 L 125.00 820.10 L 127.20 821.80 L 148.40 828.70 L 150.20 830.30 L 151.00 834.90 L 151.80 836.80 L 153.00 838.50 L 156.30 841.00 L 162.70 843.80 L 167.10 845.30 L 176.20 847.10 L 185.50 847.30 L 195.00 845.90 L 197.20 845.20 L 198.90 844.30 L 200.20 843.00 L 201.20 841.40 L 201.90 839.40 L 202.30 836.90 L 202.30 833.00 L 201.90 829.40 L 201.10 826.00 L 198.40 819.50 L 196.70 816.40 L 193.60 812.00 L 190.10 807.80 Z" fill="#b0c6da" fill-rule="nonzero" node-id="240" stroke="none" target-height="81" target-width="119.4" target-x="82.9" target-y="766.3"></path><path d="M 191.00 838.00 L 190.30 837.90 L 179.70 827.80 L 170.10 819.20 L 161.40 812.00 L 152.40 805.10 L 137.40 794.80 L 130.10 790.50 L 118.20 784.50 L 110.20 781.20 L 104.20 779.10 L 94.30 776.60 L 93.90 776.40 L 94.20 775.70 L 99.00 776.60 L 104.50 778.10 L 110.60 780.20 L 118.70 783.60 L 130.60 789.60 L 137.90 793.90 L 153.10 804.30 L 162.10 811.20 L 170.80 818.40 L 180.50 827.00 L 191.10 837.20 L 191.00 838.00 Z" fill="#95b4ce" fill-rule="nonzero" node-id="242" stroke="none" target-height="62.299988" target-width="97.200005" target-x="93.9" target-y="775.7"></path><path d="M 787.20 834.60 L 788.30 834.40 L 802.90 820.40 L 816.30 808.20 L 828.70 797.60 L 841.40 787.40 L 852.90 778.60 L 863.50 771.20 L 874.30 764.10 L 884.00 758.20 L 892.70 753.40 L 909.30 745.20 L 926.10 738.60 L 933.80 736.20 L 947.10 733.00 L 947.70 732.60 L 947.70 732.00 L 947.30 731.50 L 946.60 731.40 L 940.30 732.80 L 925.50 737.10 L 908.60 743.70 L 891.80 751.90 L 883.10 756.80 L 873.30 762.70 L 862.50 769.80 L 851.90 777.30 L 840.20 786.10 L 827.50 796.30 L 815.00 807.00 L 801.50 819.20 L 786.90 833.30 L 786.70 833.80 L 787.20 834.60 Z" fill="#95b4ce" fill-rule="nonzero" node-id="244" stroke="none" target-height="103.19995" target-width="161" target-x="786.7" target-y="731.4"></path></svg>