<?xml version="1.0" standalone="no"?><!DOCTYPE svg PUBLIC "-//W3C//DTD SVG 1.1//EN" "http://www.w3.org/Graphics/SVG/1.1/DTD/svg11.dtd"><svg height="1024" node-id="1" sillyvg="true" template-height="1024" template-width="1024" version="1.1" viewBox="0 0 1024 1024" width="1024" xmlns="http://www.w3.org/2000/svg" xmlns:xlink="http://www.w3.org/1999/xlink"><defs node-id="59"></defs><g node-id="186"><g node-id="196"><path d="M 746.70 844.40 L 746.70 773.10 L 699.10 773.10 L 699.10 844.40 L 699.40 845.30 L 720.20 857.50 L 721.50 858.00 L 723.10 858.10 L 726.10 857.30 L 745.20 846.30 L 746.20 845.50 L 746.70 844.40 Z" fill="#949fff" fill-rule="nonzero" group-id="1,11" node-id="65" stroke="none" target-height="85" target-width="47.600037" target-x="699.1" target-y="773.1"></path></g><g node-id="197"><path d="M 720.20 786.40 L 700.10 774.80 L 699.30 774.00 L 699.10 773.10 L 699.50 772.30 L 700.50 771.40 L 719.60 760.40 L 721.10 759.80 L 724.20 759.70 L 725.50 760.10 L 745.60 771.70 L 746.40 772.50 L 746.60 773.40 L 746.20 774.20 L 745.20 775.10 L 726.10 786.10 L 723.10 786.90 L 720.20 786.40 Z" fill="#dee6ff" fill-rule="nonzero" group-id="1,12" node-id="70" stroke="none" target-height="27.200012" target-width="47.5" target-x="699.1" target-y="759.7"></path></g><g node-id="198"><path d="M 115.50 842.70 L 115.50 668.50 L 67.90 668.50 L 67.90 842.70 L 68.20 843.60 L 68.90 844.20 L 89.00 855.80 L 90.30 856.30 L 91.90 856.40 L 94.90 855.60 L 114.00 844.60 L 114.90 843.80 L 115.50 842.70 Z" fill="#dee1f0" fill-rule="nonzero" group-id="1,13" node-id="75" stroke="none" target-height="187.90002" target-width="47.6" target-x="67.9" target-y="668.5"></path></g><g node-id="199"><g node-id="207"><path d="M 89.00 681.70 L 68.90 670.10 L 68.10 669.30 L 67.90 668.40 L 68.30 667.60 L 69.30 666.70 L 88.40 655.70 L 91.40 654.90 L 94.30 655.40 L 114.40 667.00 L 115.20 667.80 L 115.40 668.70 L 115.00 669.50 L 114.00 670.40 L 94.90 681.40 L 93.50 682.00 L 91.90 682.30 L 90.30 682.20 L 89.00 681.70 Z" fill="#fafbfd" fill-rule="nonzero" group-id="1,14,22" node-id="81" stroke="none" target-height="27.399963" target-width="47.5" target-x="67.9" target-y="654.9"></path></g></g><g node-id="200"><g node-id="208"><path d="M 985.50 867.10 L 38.50 867.10 L 38.80 860.90 L 39.60 858.00 L 40.80 855.40 L 42.50 853.00 L 44.50 851.00 L 46.90 849.30 L 49.50 848.10 L 52.40 847.30 L 55.50 847.00 L 968.50 847.00 L 971.60 847.30 L 974.50 848.10 L 977.10 849.30 L 979.50 851.00 L 981.50 853.00 L 983.20 855.40 L 984.40 858.00 L 985.20 860.90 L 985.50 867.10 Z" fill="#b2c7db" fill-rule="nonzero" group-id="1,15,23" node-id="89" stroke="none" target-height="20.099976" target-width="947" target-x="38.5" target-y="847"></path></g></g><g node-id="201"><path d="M 781.10 812.50 L 779.10 817.10 L 777.70 821.70 L 777.10 824.80 L 777.40 837.00 L 777.90 839.60 L 778.80 842.00 L 780.20 844.20 L 782.10 846.10 L 784.20 847.70 L 787.10 849.00 L 790.60 849.90 L 795.30 850.40 L 821.60 851.20 L 827.70 850.70 L 833.50 849.60 L 839.10 848.00 L 844.50 845.90 L 849.70 843.30 L 854.80 840.10 L 858.70 837.20 L 860.40 835.50 L 861.70 833.50 L 862.30 832.00 L 862.90 824.70 L 863.50 823.10 L 864.70 821.50 L 875.40 817.70 L 897.10 811.20 L 901.90 809.00 L 903.80 807.50 L 905.20 805.60 L 906.40 802.30 L 906.90 798.40 L 907.60 796.90 L 910.10 794.30 L 913.30 792.20 L 918.60 789.50 L 937.90 781.70 L 947.90 776.00 L 949.50 774.20 L 949.90 773.20 L 949.90 769.00 L 950.30 766.40 L 951.00 764.20 L 953.50 760.10 L 958.00 756.00 L 965.80 749.90 L 970.10 745.70 L 974.00 741.10 L 974.00 735.20 L 972.70 732.80 L 971.10 730.70 L 969.20 729.00 L 964.80 726.40 L 962.30 725.60 L 958.40 724.90 L 954.40 724.80 L 950.50 725.30 L 940.30 728.20 L 934.40 728.50 L 931.60 728.00 L 926.10 726.00 L 917.70 720.60 L 914.80 719.50 L 911.70 718.90 L 908.60 718.90 L 905.30 719.40 L 902.00 720.50 L 898.90 721.90 L 895.80 723.90 L 892.90 726.30 L 882.90 736.00 L 880.20 737.70 L 877.40 738.70 L 874.40 739.30 L 871.20 739.30 L 864.40 738.30 L 861.20 738.30 L 858.40 738.90 L 855.60 739.90 L 852.90 741.50 L 850.20 743.80 L 845.80 748.50 L 833.90 763.60 L 830.50 767.10 L 826.60 769.30 L 824.40 769.80 L 819.90 769.90 L 818.10 770.30 L 814.80 771.90 L 809.20 775.90 L 804.00 780.10 L 799.30 784.70 L 794.90 789.60 L 790.90 794.80 L 787.30 800.40 L 784.00 806.30 L 781.10 812.50" fill="#b1c6d9" fill-rule="nonzero" group-id="1,16" node-id="95" stroke="none" target-height="132.29999" target-width="196.90002" target-x="777.1" target-y="718.9"></path></g><g node-id="202"><path d="M 190.10 813.80 L 185.40 809.00 L 182.70 806.90 L 179.80 805.10 L 176.60 803.90 L 171.40 802.70 L 170.00 801.90 L 167.00 798.70 L 163.30 793.30 L 160.90 790.40 L 155.90 786.00 L 153.50 784.70 L 151.70 784.20 L 149.80 784.20 L 145.50 785.00 L 143.60 785.10 L 140.00 784.00 L 138.40 782.90 L 134.40 778.80 L 131.80 776.60 L 126.00 773.00 L 123.30 772.30 L 119.10 773.00 L 117.30 773.70 L 112.50 777.10 L 110.30 778.30 L 108.20 778.90 L 106.00 778.80 L 99.70 777.20 L 92.60 776.90 L 90.20 777.30 L 88.10 778.20 L 86.30 779.60 L 84.70 781.40 L 82.90 785.00 L 83.40 786.90 L 85.70 789.50 L 96.10 798.90 L 98.20 801.70 L 98.10 804.60 L 99.70 807.20 L 101.20 808.70 L 103.80 810.40 L 114.90 815.00 L 120.80 818.10 L 123.20 820.40 L 123.90 821.90 L 124.50 825.10 L 125.00 826.10 L 127.20 827.80 L 148.40 834.70 L 150.20 836.30 L 151.00 840.90 L 151.80 842.80 L 153.00 844.50 L 156.30 847.00 L 162.70 849.80 L 167.10 851.30 L 176.20 853.10 L 185.50 853.30 L 195.00 851.90 L 197.20 851.20 L 198.90 850.30 L 200.20 849.00 L 201.20 847.40 L 201.90 845.40 L 202.30 842.90 L 202.30 839.00 L 201.90 835.40 L 201.10 832.00 L 198.40 825.50 L 196.70 822.40 L 193.60 818.00 L 190.10 813.80 Z" fill="#b0c6da" fill-rule="nonzero" group-id="1,17" node-id="100" stroke="none" target-height="81" target-width="119.4" target-x="82.9" target-y="772.3"></path></g><g node-id="203"><path d="M 191.00 844.00 L 190.30 843.90 L 179.70 833.80 L 170.10 825.20 L 161.40 818.00 L 152.40 811.10 L 137.40 800.80 L 130.10 796.50 L 118.20 790.50 L 110.20 787.20 L 104.20 785.10 L 94.30 782.60 L 93.90 782.00 L 94.60 781.60 L 99.00 782.60 L 110.60 786.20 L 124.20 792.20 L 137.90 799.90 L 153.10 810.30 L 162.10 817.20 L 170.80 824.40 L 180.50 833.00 L 191.10 843.20 L 191.00 844.00 Z" fill="#95b4ce" fill-rule="nonzero" group-id="1,18" node-id="105" stroke="none" target-height="62.400024" target-width="97.200005" target-x="93.9" target-y="781.6"></path></g><path d="M 787.20 840.60 L 787.80 840.70 L 788.30 840.40 L 802.90 826.40 L 816.30 814.20 L 828.70 803.60 L 841.40 793.40 L 852.90 784.60 L 863.50 777.20 L 874.30 770.10 L 892.70 759.40 L 909.30 751.20 L 926.10 744.60 L 933.80 742.20 L 947.10 739.00 L 947.70 738.60 L 947.70 738.00 L 947.30 737.50 L 946.60 737.40 L 940.30 738.80 L 925.50 743.10 L 908.60 749.70 L 891.80 757.90 L 883.10 762.80 L 873.30 768.70 L 862.50 775.80 L 851.90 783.30 L 840.20 792.10 L 827.50 802.30 L 815.00 813.00 L 801.50 825.20 L 786.90 839.30 L 786.70 839.80 L 787.20 840.60 Z" fill="#95b4ce" fill-rule="nonzero" group-id="1,19" node-id="110" stroke="none" target-height="103.29999" target-width="161" target-x="786.7" target-y="737.4"></path></g><g node-id="187"><path d="M 512.00 643.20 L 512.00 345.20 L 280.10 417.30 L 280.10 715.80 L 512.00 643.20 Z" fill="#c8e7fc" fill-rule="evenodd" group-id="2" node-id="115" stroke="none" target-height="370.59998" target-width="231.9" target-x="280.1" target-y="345.2"></path></g><g node-id="188"><path d="M 743.90 417.30 L 512.00 345.20 L 512.00 643.10 L 743.90 715.70 L 743.90 417.30 Z" fill="#88b6e5" fill-rule="evenodd" group-id="3" node-id="119" stroke="none" target-height="370.5" target-width="231.90002" target-x="512" target-y="345.2"></path></g><g node-id="189"><path d="M 512.00 491.00 L 280.10 418.40 L 280.10 716.30 L 512.00 788.90 L 512.00 491.00 Z" fill="#b5cde2" fill-rule="evenodd" group-id="4" node-id="123" stroke="none" target-height="370.50003" target-width="231.9" target-x="280.1" target-y="418.4"></path></g><g node-id="190"><path d="M 743.90 716.30 L 743.90 418.40 L 512.00 491.00 L 512.00 788.90 L 743.90 716.30 Z" fill="#b1d6ef" fill-rule="evenodd" group-id="5" node-id="127" stroke="none" target-height="370.50003" target-width="231.90002" target-x="512" target-y="418.4"></path></g><path d="M 512.00 491.00 L 280.10 418.40 L 280.10 716.30 L 459.40 736.40 Z" fill="none" node-id="130" stroke="none" target-height="318.00003" target-width="231.9" target-x="280.1" target-y="418.4"></path><path d="M 743.90 716.30 L 743.90 418.40 L 512.00 491.00 L 564.50 683.80 Z" fill="none" node-id="132" stroke="none" target-height="297.9" target-width="231.90002" target-x="512" target-y="418.4"></path><g node-id="191"><path d="M 403.00 263.60 L 167.30 342.90 L 280.20 417.20 L 512.00 345.20 L 403.00 263.60 Z" fill="#d7ebff" fill-rule="evenodd" group-id="6" node-id="135" stroke="none" target-height="153.6" target-width="344.7" target-x="167.3" target-y="263.6"></path></g><g node-id="192"><path d="M 743.90 417.30 L 856.80 343.00 L 621.00 263.60 L 512.00 345.20 L 743.90 417.30 Z" fill="#dee6ff" fill-rule="evenodd" group-id="7" node-id="139" stroke="none" target-height="153.69998" target-width="344.8" target-x="512" target-y="263.6"></path></g><g node-id="193"><path d="M 167.20 488.80 L 396.30 564.80 L 512.00 491.00 L 280.10 418.40 L 167.20 488.80 Z" fill="#dee6ff" fill-rule="evenodd" group-id="8" node-id="143" stroke="none" target-height="146.4" target-width="344.8" target-x="167.2" target-y="418.4"></path></g><g node-id="194"><path d="M 512.00 491.00 L 627.60 564.80 L 856.70 488.80 L 743.80 418.40 L 512.00 491.00 Z" fill="#d7ebff" fill-rule="evenodd" group-id="9" node-id="147" stroke="none" target-height="146.4" target-width="344.7" target-x="512" target-y="418.4"></path></g><g node-id="195"><g node-id="205"><g node-id="209"><path d="M 595.40 169.10 L 608.80 210.70 L 738.20 83.70 Z" fill="#0cbc8b" fill-rule="nonzero" group-id="10,20,24" node-id="156" stroke="none" target-height="127" target-width="142.79999" target-x="595.4" target-y="83.7"></path></g><g node-id="210"><path d="M 595.40 169.10 L 608.80 210.70 L 738.20 83.70 Z" fill="#0a0a0a" fill-opacity="0.2" fill-rule="nonzero" group-id="10,20,25" node-id="161" stroke="none" target-height="127" target-width="142.79999" target-x="595.4" target-y="83.7"></path></g><g node-id="211"><path d="M 607.20 179.00 L 608.80 210.70 L 707.10 111.20 Z" fill="#0cbc8b" fill-rule="nonzero" group-id="10,20,26" node-id="166" stroke="none" target-height="99.5" target-width="99.89996" target-x="607.2" target-y="111.2"></path></g><g node-id="212"><path d="M 607.20 179.00 L 608.80 210.70 L 707.10 111.20 Z" fill="#0a0a0a" fill-opacity="0.1" fill-rule="nonzero" group-id="10,20,27" node-id="171" stroke="none" target-height="99.5" target-width="99.89996" target-x="607.2" target-y="111.2"></path></g><path d="M 574.10 150.90 L 738.20 83.70 L 650.70 221.30 L 607.20 179.00 L 738.20 83.70 L 595.40 169.10 Z" fill="#0cbc8b" fill-rule="nonzero" group-id="10,20,28" node-id="176" stroke="none" target-height="137.6" target-width="164.10004" target-x="574.1" target-y="83.7"></path></g><path d="M 580.70 213.70 L 571.70 233.30 L 576.60 235.60 L 585.70 215.90 L 580.70 213.70 Z M 562.20 252.80 L 552.20 272.00 L 557.00 274.60 L 567.10 255.30 L 562.20 252.80 Z M 474.70 268.70 L 485.30 268.20 L 496.10 268.30 L 496.30 262.90 L 485.20 262.80 L 474.30 263.30 L 474.70 268.70 Z M 517.60 270.20 L 524.90 271.40 L 538.50 274.40 L 539.90 269.20 L 529.40 266.80 L 518.30 264.80 L 517.60 270.20 Z M 453.60 271.40 L 446.20 273.10 L 439.40 275.00 L 433.20 277.20 L 431.20 272.20 L 437.70 269.90 L 444.80 267.90 L 452.50 266.10 L 453.60 271.40 Z M 558.70 281.50 L 565.60 284.90 L 571.50 288.50 L 576.70 292.30 L 580.10 288.10 L 571.50 282.10 L 560.90 276.60 L 558.70 281.50 Z M 415.10 287.40 L 411.70 290.50 L 408.90 293.70 L 406.70 297.00 L 405.10 300.40 L 403.90 304.00 L 398.60 302.70 L 399.70 299.10 L 401.30 295.60 L 403.30 292.30 L 408.40 286.10 L 411.60 283.20 L 415.10 287.40 Z M 541.60 290.70 L 530.20 309.00 L 534.70 312.00 L 546.30 293.50 L 541.60 290.70 Z M 589.60 308.60 L 591.60 314.80 L 592.10 318.10 L 592.50 328.60 L 597.90 328.80 L 597.50 317.50 L 595.90 310.00 L 594.60 306.40 L 589.60 308.60 Z M 416.40 341.90 L 411.30 334.60 L 408.10 329.00 L 405.80 323.90 L 400.70 325.80 L 404.80 334.40 L 407.60 339.00 L 412.10 345.20 L 416.40 341.90 Z M 517.60 326.50 L 512.80 332.50 L 503.70 342.70 L 507.60 346.50 L 514.60 338.80 L 521.90 329.80 L 517.60 326.50 Z M 589.00 349.50 L 586.90 355.90 L 584.20 362.40 L 580.90 369.00 L 585.70 371.50 L 589.20 364.50 L 592.00 357.70 L 594.20 351.00 L 589.00 349.50 Z M 487.80 356.80 L 482.90 360.10 L 478.20 362.70 L 473.70 364.70 L 469.30 366.20 L 470.80 371.40 L 475.60 369.70 L 480.50 367.50 L 485.60 364.70 L 490.90 361.20 L 487.80 356.80 Z M 431.00 357.30 L 435.70 360.70 L 440.20 363.40 L 444.70 365.40 L 449.20 366.80 L 447.90 372.10 L 443.90 370.90 L 439.80 369.30 L 435.80 367.20 L 431.70 364.70 L 427.60 361.60 L 431.00 357.30 Z M 569.50 387.10 L 560.90 398.00 L 555.90 403.60 L 559.90 407.30 L 567.40 398.70 L 573.90 390.30 L 569.50 387.10 Z M 540.90 418.80 L 524.70 433.00 L 528.20 437.20 L 544.60 422.80 L 540.90 418.80 Z M 507.60 446.40 L 490.10 459.00 L 493.20 463.50 L 510.90 450.80 L 507.60 446.40 Z M 460.60 478.10 L 471.90 471.00 L 474.80 475.60 L 463.40 482.70 L 460.60 478.10 Z" fill="#292a2e" fill-opacity="0.3" fill-rule="evenodd" group-id="10,21,29" node-id="184" stroke="none" target-height="269" target-width="199.30002" target-x="398.6" target-y="213.7"></path></g></svg>