<?xml version="1.0" standalone="no"?><!DOCTYPE svg PUBLIC "-//W3C//DTD SVG 1.1//EN" "http://www.w3.org/Graphics/SVG/1.1/DTD/svg11.dtd"><svg height="1024" node-id="1" sillyvg="true" template-height="1024" template-width="1024" version="1.1" viewBox="0 0 1024 1024" width="1024" xmlns="http://www.w3.org/2000/svg" xmlns:xlink="http://www.w3.org/1999/xlink"><defs node-id="52"></defs><g node-id="165"><g node-id="176"><path d="M 715.70 689.10 L 724.50 691.70 L 724.10 693.20 L 715.20 690.50 L 715.70 689.10 Z M 733.50 693.80 L 742.60 695.40 L 742.40 696.90 L 733.20 695.30 L 733.50 693.80 Z M 751.70 696.50 L 760.90 697.00 L 760.90 698.60 L 751.60 698.10 L 751.70 696.50 Z M 901.10 462.70 L 902.50 461.90 L 906.90 470.10 L 905.50 470.80 L 901.10 462.70 Z M 770.10 697.00 L 779.30 696.40 L 779.40 698.00 L 770.10 698.60 L 770.10 697.00 Z M 909.30 479.20 L 910.70 478.60 L 914.10 487.30 L 912.60 487.80 L 909.30 479.20 Z M 788.40 695.30 L 797.50 693.70 L 797.80 695.20 L 788.60 696.80 L 788.40 695.30 Z M 915.50 496.50 L 917.00 496.10 L 918.30 500.60 L 919.30 505.10 L 917.80 505.40 L 915.50 496.50 Z M 806.40 691.50 L 815.20 688.80 L 815.70 690.30 L 806.80 693.00 L 806.40 691.50 Z M 919.60 514.50 L 921.10 514.20 L 922.40 523.40 L 920.80 523.60 L 919.60 514.50 Z M 823.90 685.60 L 832.30 681.90 L 833.00 683.30 L 824.50 687.00 L 823.90 685.60 Z M 921.50 532.80 L 923.10 532.70 L 923.30 542.00 L 921.70 542.00 L 921.50 532.80 Z M 840.50 677.70 L 848.40 673.00 L 849.20 674.30 L 841.20 679.00 L 840.50 677.70 Z M 921.30 551.20 L 922.90 551.30 L 922.00 560.60 L 920.40 560.40 L 921.30 551.20 Z M 856.10 667.90 L 863.40 662.30 L 864.40 663.50 L 857.00 669.10 L 856.10 667.90 Z M 919.00 569.50 L 920.50 569.80 L 918.50 578.90 L 917.00 578.50 L 919.00 569.50 Z M 870.40 656.30 L 877.00 649.90 L 878.10 651.00 L 871.40 657.50 L 870.40 656.30 Z M 914.60 587.30 L 916.10 587.80 L 913.10 596.60 L 911.60 596.00 L 914.60 587.30 Z M 883.30 643.20 L 889.10 636.10 L 890.30 637.10 L 884.40 644.30 L 883.30 643.20 Z M 908.00 604.50 L 909.40 605.10 L 905.40 613.50 L 904.00 612.80 L 908.00 604.50 Z M 894.60 628.60 L 899.60 620.80 L 900.90 621.60 L 895.90 629.40 L 894.60 628.60 Z" fill="#777f99" fill-rule="nonzero" group-id="1,12" node-id="60" stroke="none" target-height="236.69998" target-width="208.09998" target-x="715.2" target-y="461.9"></path></g><path d="M 702.70 684.10 L 707.00 685.90 L 706.40 687.40 L 702.00 685.60 L 702.70 684.10 Z" fill="#777f99" fill-rule="nonzero" group-id="1,13" node-id="65" stroke="none" target-height="3.3000488" target-width="5" target-x="702" target-y="684.1"></path></g><g node-id="166"><g node-id="178"><path d="M 198.90 515.60 L 196.00 511.80 L 197.30 510.90 L 200.10 514.60 L 198.90 515.60 Z" fill="#777f99" fill-rule="nonzero" group-id="2,14" node-id="73" stroke="none" target-height="4.6999817" target-width="4.100006" target-x="196" target-y="510.9"></path></g><g node-id="179"><path d="M 190.90 503.80 L 186.80 495.20 L 188.30 494.60 L 192.30 503.00 L 190.90 503.80 Z M 183.90 486.20 L 182.10 476.90 L 183.60 476.70 L 185.40 485.80 L 183.90 486.20 Z M 181.30 467.50 L 181.80 458.00 L 183.40 458.20 L 182.90 467.50 L 181.30 467.50 Z M 183.40 448.70 L 186.20 439.60 L 187.70 440.10 L 185.00 449.00 L 183.40 448.70 Z M 190.00 430.90 L 194.90 422.70 L 196.20 423.60 L 191.40 431.60 L 190.00 430.90 Z M 202.00 416.40 L 200.80 415.40 L 207.50 408.70 L 208.50 409.90 L 202.00 416.40 Z M 215.90 404.10 L 215.00 402.80 L 219.00 400.20 L 223.10 397.90 L 223.80 399.30 L 215.90 404.10 Z M 232.40 395.60 L 231.90 394.10 L 236.40 392.60 L 241.00 391.40 L 241.40 392.90 L 232.40 395.60 Z M 250.40 391.40 L 250.20 389.80 L 254.90 389.50 L 259.70 389.40 L 259.70 391.00 L 250.40 391.40 Z M 269.00 391.70 L 269.20 390.20 L 273.80 391.00 L 278.50 392.10 L 278.10 393.60 L 269.00 391.70 Z" fill="#777f99" fill-rule="nonzero" group-id="2,15" node-id="78" stroke="none" target-height="114.399994" target-width="97.2" target-x="181.3" target-y="389.4"></path></g><path d="M 286.90 396.50 L 287.50 395.10 L 291.80 397.00 L 291.10 398.40 L 286.90 396.50 Z" fill="#777f99" fill-rule="nonzero" group-id="2,16" node-id="83" stroke="none" target-height="3.2999878" target-width="4.899994" target-x="286.9" target-y="395.1"></path></g><g node-id="167"><path d="M 308.80 594.00 L 679.00 594.00 L 685.10 593.20 L 688.00 592.20 L 693.30 589.20 L 695.70 587.10 L 697.70 584.80 L 700.80 579.50 L 702.40 573.50 L 702.60 570.40 L 702.60 422.00 L 702.30 411.60 L 701.60 401.40 L 700.40 391.30 L 698.70 381.50 L 696.50 371.80 L 693.90 362.20 L 690.90 352.80 L 687.40 343.70 L 683.50 334.80 L 679.30 326.00 L 674.60 317.50 L 669.50 309.30 L 664.10 301.30 L 658.40 293.60 L 652.30 286.10 L 645.80 279.00 L 639.10 272.10 L 632.00 265.60 L 624.70 259.40 L 617.00 253.50 L 609.10 248.00 L 601.00 242.90 L 592.50 238.10 L 583.90 233.70 L 574.90 229.70 L 565.90 226.10 L 556.60 223.00 L 547.10 220.20 L 537.40 218.00 L 527.50 216.10 L 528.80 211.90 L 529.60 207.60 L 529.90 203.20 L 529.60 198.40 L 528.70 193.90 L 527.20 189.50 L 525.10 185.30 L 522.60 181.50 L 519.60 178.00 L 516.10 174.90 L 512.30 172.30 L 508.00 170.10 L 503.50 168.50 L 498.90 167.60 L 494.30 167.30 L 489.60 167.50 L 485.10 168.30 L 480.70 169.70 L 476.50 171.70 L 472.60 174.20 L 468.90 177.30 L 465.70 180.90 L 463.00 184.70 L 460.90 188.80 L 459.30 193.20 L 458.30 197.60 L 457.90 202.30 L 458.10 206.90 L 458.90 211.50 L 460.30 216.10 L 450.40 218.00 L 440.70 220.30 L 431.20 223.00 L 421.90 226.20 L 412.90 229.70 L 403.90 233.80 L 395.30 238.20 L 386.80 242.90 L 378.70 248.10 L 370.80 253.60 L 363.10 259.50 L 355.80 265.70 L 348.70 272.20 L 342.00 279.00 L 335.50 286.20 L 329.40 293.70 L 323.60 301.40 L 318.30 309.30 L 313.20 317.60 L 308.50 326.10 L 304.30 334.80 L 300.40 343.70 L 296.90 352.90 L 293.90 362.20 L 291.30 371.90 L 289.10 381.50 L 287.40 391.40 L 286.20 401.40 L 285.50 411.60 L 285.20 422.00 L 285.20 570.40 L 285.40 573.60 L 286.00 576.70 L 287.10 579.60 L 288.40 582.30 L 292.10 587.10 L 296.90 590.80 L 299.60 592.10 L 302.50 593.20 L 305.60 593.80 L 308.80 594.00 Z" fill="#bad6f7" fill-rule="nonzero" group-id="3" node-id="89" stroke="none" target-height="426.7" target-width="417.39996" target-x="285.2" target-y="167.3"></path></g><g node-id="168"><path d="M 493.80 798.40 L 503.30 797.60 L 512.20 795.40 L 517.80 793.20 L 523.20 790.40 L 528.20 787.20 L 532.80 783.40 L 537.00 779.20 L 540.80 774.60 L 544.00 769.60 L 546.80 764.20 L 549.00 758.60 L 550.30 754.20 L 551.80 745.00 L 552.00 740.20 L 435.60 740.20 L 435.80 745.30 L 436.50 750.30 L 437.60 755.30 L 439.10 760.10 L 441.00 764.80 L 443.30 769.30 L 446.10 773.50 L 449.10 777.60 L 452.60 781.40 L 456.40 784.90 L 460.40 788.00 L 464.70 790.70 L 469.20 793.00 L 473.90 794.90 L 478.70 796.40 L 483.60 797.50 L 488.70 798.20 L 493.80 798.40 Z" fill="#3a3a77" fill-rule="nonzero" group-id="4" node-id="94" stroke="none" target-height="58.200012" target-width="116.399994" target-x="435.6" target-y="740.2"></path></g><path d="M 782.90 675.10 L 770.80 651.00 L 767.90 645.70 L 764.50 640.80 L 760.60 636.00 L 756.30 631.60 L 751.80 627.60 L 747.10 624.00 L 742.00 620.80 L 737.00 618.20 L 731.90 616.10 L 726.70 614.50 L 721.70 613.50 L 716.80 613.20 L 270.90 613.20 L 266.00 613.50 L 261.00 614.50 L 255.80 616.10 L 250.70 618.20 L 245.70 620.80 L 240.60 624.00 L 235.90 627.60 L 231.40 631.60 L 227.10 636.00 L 223.20 640.70 L 219.80 645.70 L 216.90 651.00 L 204.80 675.10 L 202.60 680.00 L 200.90 684.70 L 199.80 689.10 L 199.10 693.30 L 198.80 697.60 L 199.00 701.60 L 199.60 705.20 L 200.60 708.50 L 202.10 711.70 L 203.90 714.50 L 206.20 716.90 L 208.90 719.00 L 211.90 720.60 L 215.30 721.80 L 219.10 722.60 L 223.60 722.90 L 764.20 722.90 L 768.60 722.60 L 772.50 721.80 L 775.90 720.60 L 778.80 719.00 L 781.50 716.90 L 783.80 714.40 L 785.70 711.70 L 787.20 708.50 L 788.20 705.20 L 788.80 701.50 L 789.00 697.60 L 788.70 693.30 L 788.00 689.10 L 786.80 684.70 L 785.10 680.00 L 782.90 675.10 Z" fill="#bad6f7" fill-rule="nonzero" node-id="97" stroke="none" target-height="109.70001" target-width="590.2" target-x="198.8" target-y="613.2"></path><path d="M 499.30 798.20 L 504.90 797.40 L 510.20 796.10 L 515.30 794.40 L 520.20 792.20 L 524.80 789.50 L 529.20 786.50 L 533.20 783.20 L 536.90 779.40 L 540.30 775.40 L 543.30 771.10 L 545.90 766.50 L 548.10 761.60 L 549.80 756.50 L 551.00 751.30 L 551.80 745.90 L 552.10 740.20 L 499.30 740.20 L 499.30 798.20 Z" fill="#3a3a77" fill-rule="nonzero" node-id="99" stroke="none" target-height="58" target-width="52.799988" target-x="499.3" target-y="740.2"></path><g node-id="169"><path d="M 770.80 650.90 L 767.90 645.60 L 764.50 640.70 L 760.60 635.90 L 756.30 631.50 L 751.80 627.50 L 747.10 623.90 L 742.00 620.70 L 737.00 618.10 L 731.90 616.00 L 726.70 614.40 L 721.70 613.40 L 716.80 613.10 L 499.30 613.10 L 499.30 722.80 L 764.20 722.80 L 768.70 722.50 L 772.50 721.70 L 775.90 720.50 L 778.90 718.90 L 781.60 716.80 L 783.90 714.40 L 785.70 711.60 L 787.20 708.50 L 788.20 705.10 L 788.80 701.50 L 789.00 697.60 L 788.70 693.20 L 788.00 689.00 L 786.90 684.60 L 785.20 680.00 L 783.00 675.00 L 770.80 650.90 Z" fill="#cedfff" fill-rule="nonzero" group-id="5" node-id="103" stroke="none" target-height="109.70001" target-width="289.7" target-x="499.3" target-y="613.1"></path></g><path d="M 729.60 182.10 L 765.70 216.40 L 694.00 242.10 L 729.60 182.10 Z" fill="#d3dcf4" fill-rule="nonzero" node-id="106" stroke="none" target-height="60" target-width="71.70001" target-x="694" target-y="182.1"></path><path d="M 704.20 261.10 L 808.40 236.60 L 808.40 288.70 L 704.20 261.10 Z" fill="#d3dcf4" fill-rule="nonzero" node-id="108" stroke="none" target-height="52.100006" target-width="104.20001" target-x="704.2" target-y="236.6"></path><path d="M 916.20 528.70 L 881.90 501.00 L 746.80 491.40 L 743.30 490.90 L 740.00 490.00 L 736.90 488.70 L 734.10 487.00 L 731.50 484.90 L 729.20 482.60 L 727.20 480.00 L 725.60 477.10 L 724.30 474.00 L 723.40 470.80 L 723.00 467.40 L 723.00 463.90 L 726.90 408.90 L 727.40 405.40 L 728.30 402.10 L 729.60 399.10 L 731.30 396.20 L 733.40 393.60 L 735.70 391.30 L 738.30 389.30 L 741.20 387.70 L 744.30 386.40 L 747.50 385.50 L 750.90 385.10 L 754.40 385.10 L 901.10 395.60 L 904.60 396.10 L 907.90 397.00 L 911.00 398.40 L 913.80 400.10 L 916.40 402.10 L 918.70 404.40 L 920.70 407.10 L 922.30 409.90 L 923.60 413.00 L 924.50 416.20 L 924.90 419.60 L 924.90 423.10 L 921.00 478.10 L 916.20 528.70 Z" fill="#4c96ec" fill-rule="nonzero" node-id="110" stroke="none" target-height="143.6" target-width="201.90002" target-x="723" target-y="385.1"></path><path d="M 796.50 440.10 L 796.20 443.70 L 795.30 446.90 L 793.80 450.00 L 791.90 452.70 L 789.50 455.10 L 786.80 457.00 L 783.70 458.50 L 780.50 459.40 L 776.90 459.70 L 773.30 459.40 L 770.10 458.50 L 767.00 457.00 L 764.30 455.10 L 761.90 452.70 L 760.00 450.00 L 758.50 446.90 L 757.60 443.70 L 757.30 440.10 L 757.60 436.50 L 758.50 433.30 L 760.00 430.20 L 761.90 427.50 L 764.30 425.10 L 767.00 423.20 L 770.10 421.70 L 773.30 420.80 L 776.90 420.50 L 780.50 420.80 L 783.70 421.70 L 786.80 423.20 L 789.50 425.10 L 791.90 427.50 L 793.80 430.20 L 795.30 433.30 L 796.20 436.50 L 796.50 440.10 Z" fill="#fe9f39" fill-rule="nonzero" node-id="112" stroke="none" target-height="39.200012" target-width="39.200012" target-x="757.3" target-y="420.5"></path><path d="M 823.30 435.40 L 883.20 439.70 L 886.20 440.50 L 888.60 442.10 L 890.30 444.50 L 891.10 447.40 L 891.10 449.00 L 890.30 452.00 L 888.70 454.40 L 886.30 456.10 L 883.40 456.90 L 820.30 452.30 L 817.60 451.10 L 815.60 449.10 L 814.30 446.40 L 814.00 443.30 L 814.80 440.30 L 816.40 437.90 L 818.80 436.20 L 821.70 435.40 Z" fill="#ebf0ff" fill-rule="nonzero" node-id="114" stroke="none" target-height="21.5" target-width="77.099976" target-x="814" target-y="435.4"></path><g node-id="170"><path d="M 151.30 615.80 L 151.80 610.50 L 154.90 595.30 L 158.70 582.20 L 161.30 575.30 L 164.20 568.50 L 170.10 557.70 L 172.90 553.80 L 180.50 544.30 L 185.40 538.60 L 196.10 528.10 L 201.80 523.30 L 207.90 518.80 L 214.30 514.70 L 221.10 510.90 L 228.00 507.50 L 235.40 504.50 L 243.30 501.90 L 251.60 499.70 L 259.90 498.00 L 268.80 496.80 L 278.30 496.00 L 288.50 495.70 L 297.90 496.00 L 307.00 496.70 L 315.70 497.80 L 324.10 499.40 L 332.60 501.40 L 340.50 503.80 L 348.00 506.50 L 355.10 509.50 L 362.00 513.10 L 368.40 516.80 L 374.20 520.80 L 379.50 525.10 L 384.50 529.80 L 388.70 534.60 L 392.40 539.60 L 395.50 544.70 L 397.50 549.10 L 399.10 553.50 L 400.20 558.10 L 400.90 562.70 L 401.20 567.40 L 400.90 572.10 L 400.20 576.70 L 399.10 581.30 L 397.50 585.70 L 395.50 590.10 L 392.40 595.20 L 388.70 600.20 L 384.40 605.00 L 379.40 609.70 L 374.20 614.00 L 368.40 618.00 L 362.00 621.70 L 355.00 625.30 L 348.00 628.30 L 340.50 631.00 L 332.50 633.40 L 324.10 635.40 L 315.70 637.00 L 307.00 638.10 L 297.90 638.80 L 288.50 639.10 L 277.00 638.80 L 266.30 638.10 L 256.30 636.90 L 246.90 635.20 L 239.30 633.40 L 232.20 631.30 L 225.60 628.90 L 219.50 626.20 L 213.80 623.20 L 208.20 619.80 L 203.10 616.10 L 198.50 612.00 L 194.30 607.70 L 190.50 603.00 L 187.80 602.10 L 185.00 601.70 L 182.20 601.90 L 176.50 603.30 L 169.50 606.70 L 155.70 615.70 L 153.70 616.70 L 152.50 616.90 L 151.80 616.60 L 151.30 615.80 Z" fill="#e0eaff" fill-rule="nonzero" group-id="6" node-id="118" stroke="none" target-height="143.39996" target-width="249.90001" target-x="151.3" target-y="495.7"></path></g><g node-id="171"><path d="M 237.00 541.10 L 300.10 541.10 L 302.10 541.40 L 303.80 542.10 L 305.30 543.30 L 306.50 544.80 L 307.20 546.50 L 307.50 548.50 L 307.20 550.50 L 306.50 552.20 L 305.30 553.70 L 303.80 554.90 L 302.10 555.60 L 300.10 555.90 L 237.00 555.90 L 235.00 555.60 L 233.30 554.90 L 231.80 553.70 L 230.60 552.20 L 229.90 550.50 L 229.60 548.50 L 229.90 546.50 L 230.70 544.80 L 231.80 543.30 L 233.30 542.10 L 235.10 541.40 L 237.00 541.10 Z" fill="#3a3a77" fill-rule="nonzero" group-id="7" node-id="123" stroke="none" target-height="14.800049" target-width="77.899994" target-x="229.6" target-y="541.1"></path></g><g node-id="172"><path d="M 346.70 547.80 L 346.00 551.70 L 344.10 554.90 L 341.30 557.30 L 339.60 558.10 L 335.70 558.80 L 331.80 558.10 L 330.10 557.30 L 327.30 554.90 L 325.40 551.70 L 324.70 547.80 L 325.40 543.90 L 327.30 540.70 L 330.10 538.30 L 331.80 537.50 L 335.70 536.80 L 339.60 537.50 L 342.80 539.40 L 345.20 542.20 L 346.00 543.90 L 346.70 547.80 Z" fill="#fe9f39" fill-rule="nonzero" group-id="8" node-id="128" stroke="none" target-height="22" target-width="22" target-x="324.7" target-y="536.8"></path></g><g node-id="173"><path d="M 237.00 579.10 L 300.10 579.10 L 302.10 579.40 L 303.80 580.10 L 305.30 581.30 L 306.50 582.80 L 307.20 584.50 L 307.50 586.50 L 307.20 588.50 L 306.50 590.20 L 305.30 591.70 L 303.80 592.90 L 302.10 593.60 L 300.10 593.90 L 237.00 593.90 L 235.00 593.60 L 233.30 592.90 L 231.80 591.70 L 230.60 590.20 L 229.90 588.50 L 229.60 586.50 L 229.90 584.50 L 230.70 582.80 L 231.80 581.30 L 233.30 580.10 L 235.10 579.40 L 237.00 579.10 Z" fill="#3a3a77" fill-rule="nonzero" group-id="9" node-id="133" stroke="none" target-height="14.800049" target-width="77.899994" target-x="229.6" target-y="579.1"></path></g><g node-id="174"><path d="M 346.70 584.00 L 346.00 587.90 L 344.10 591.10 L 341.30 593.50 L 339.60 594.30 L 335.70 595.00 L 331.80 594.30 L 328.60 592.40 L 326.20 589.60 L 324.90 586.00 L 324.90 582.00 L 326.20 578.40 L 327.30 576.90 L 330.10 574.50 L 333.70 573.20 L 337.70 573.20 L 339.60 573.70 L 342.80 575.60 L 345.20 578.40 L 346.00 580.10 L 346.70 584.00 Z" fill="#fe9f39" fill-rule="nonzero" group-id="10" node-id="138" stroke="none" target-height="21.799988" target-width="21.800018" target-x="324.9" target-y="573.2"></path></g><path d="M 746.70 838.40 L 746.70 767.10 L 699.10 767.10 L 699.10 838.40 L 699.40 839.30 L 720.20 851.50 L 721.50 852.00 L 723.10 852.10 L 726.10 851.30 L 745.20 840.30 L 746.20 839.50 L 746.70 838.40 Z" fill="#949fff" fill-rule="nonzero" node-id="141" stroke="none" target-height="85" target-width="47.600037" target-x="699.1" target-y="767.1"></path><path d="M 720.20 780.40 L 700.10 768.80 L 699.30 768.00 L 699.10 767.10 L 699.50 766.30 L 700.50 765.40 L 719.60 754.40 L 721.10 753.80 L 724.20 753.70 L 725.50 754.10 L 745.60 765.70 L 746.40 766.50 L 746.60 767.40 L 746.20 768.20 L 745.20 769.10 L 726.10 780.10 L 723.10 780.90 L 720.20 780.40 Z" fill="#dee6ff" fill-rule="nonzero" node-id="143" stroke="none" target-height="27.200012" target-width="47.5" target-x="699.1" target-y="753.7"></path><path d="M 115.50 836.70 L 115.50 662.50 L 67.90 662.50 L 67.90 836.70 L 68.20 837.60 L 68.90 838.20 L 89.00 849.80 L 90.30 850.30 L 91.90 850.40 L 94.90 849.60 L 114.00 838.60 L 114.90 837.80 L 115.50 836.70 Z" fill="#dee1f0" fill-rule="nonzero" node-id="145" stroke="none" target-height="187.90002" target-width="47.6" target-x="67.9" target-y="662.5"></path><path d="M 89.00 675.70 L 68.90 664.10 L 68.10 663.30 L 67.90 662.40 L 68.30 661.60 L 69.30 660.70 L 88.40 649.70 L 91.40 648.90 L 94.30 649.40 L 114.40 661.00 L 115.20 661.80 L 115.40 662.70 L 115.00 663.50 L 114.00 664.40 L 94.90 675.40 L 93.50 676.00 L 91.90 676.30 L 90.30 676.20 L 89.00 675.70 Z" fill="#fafbfd" fill-rule="nonzero" node-id="147" stroke="none" target-height="27.399963" target-width="47.5" target-x="67.9" target-y="648.9"></path><g node-id="175"><g node-id="181"><path d="M 977.00 861.10 L 30.00 861.10 L 30.30 854.90 L 31.10 852.00 L 32.30 849.40 L 34.00 847.00 L 36.00 845.00 L 38.40 843.30 L 41.00 842.10 L 43.90 841.30 L 47.00 841.00 L 960.00 841.00 L 963.10 841.30 L 966.00 842.10 L 968.60 843.30 L 971.00 845.00 L 973.00 847.00 L 974.70 849.40 L 975.90 852.00 L 976.70 854.90 L 977.00 861.10 Z" fill="#b7cdeb" fill-rule="nonzero" group-id="11,17" node-id="153" stroke="none" target-height="20.099976" target-width="947" target-x="30" target-y="841"></path></g></g><path d="M 781.10 806.50 L 779.10 811.10 L 777.70 815.60 L 777.10 818.80 L 777.40 831.00 L 777.90 833.60 L 778.80 836.00 L 780.20 838.20 L 782.10 840.10 L 784.20 841.70 L 787.10 843.00 L 790.60 843.90 L 795.30 844.40 L 821.60 845.20 L 827.70 844.70 L 833.50 843.60 L 839.10 842.00 L 844.50 839.90 L 849.70 837.30 L 854.80 834.10 L 858.70 831.20 L 860.40 829.50 L 862.30 826.00 L 862.90 818.70 L 863.50 817.10 L 864.70 815.50 L 875.40 811.70 L 897.10 805.20 L 901.90 803.00 L 903.80 801.50 L 905.20 799.60 L 906.40 796.30 L 906.90 792.40 L 907.60 790.90 L 910.10 788.30 L 913.30 786.20 L 918.60 783.50 L 937.90 775.70 L 947.90 770.00 L 949.50 768.20 L 949.90 767.20 L 949.90 763.00 L 950.30 760.40 L 951.00 758.20 L 953.50 754.10 L 958.00 750.00 L 965.80 743.90 L 970.10 739.70 L 974.00 735.10 L 974.00 729.20 L 972.70 726.80 L 971.10 724.70 L 969.20 723.00 L 964.80 720.40 L 962.30 719.60 L 958.40 718.90 L 954.40 718.80 L 950.50 719.30 L 940.30 722.20 L 934.40 722.50 L 931.60 722.00 L 926.10 720.00 L 917.70 714.60 L 914.80 713.50 L 911.70 712.90 L 908.60 712.90 L 905.30 713.40 L 902.00 714.50 L 898.90 715.90 L 895.80 717.90 L 892.90 720.30 L 882.90 730.00 L 880.20 731.70 L 877.40 732.70 L 874.40 733.30 L 871.20 733.30 L 864.40 732.30 L 861.20 732.30 L 858.40 732.90 L 855.60 733.90 L 852.90 735.50 L 850.20 737.80 L 845.80 742.50 L 833.90 757.60 L 830.50 761.10 L 826.60 763.30 L 824.40 763.80 L 819.90 763.90 L 818.10 764.30 L 814.80 765.90 L 809.20 769.90 L 804.00 774.10 L 799.30 778.70 L 794.90 783.60 L 790.90 788.80 L 787.30 794.40 L 784.00 800.30 L 781.10 806.50" fill="#b1c6d9" fill-rule="nonzero" node-id="157" stroke="none" target-height="132.29999" target-width="196.90002" target-x="777.1" target-y="712.9"></path><path d="M 190.10 807.80 L 185.40 803.00 L 182.70 800.90 L 179.80 799.10 L 176.60 797.90 L 171.40 796.70 L 170.00 795.90 L 167.00 792.70 L 163.30 787.30 L 160.90 784.40 L 155.90 780.00 L 153.50 778.70 L 151.70 778.20 L 149.80 778.20 L 145.50 779.00 L 143.60 779.10 L 140.00 778.00 L 138.40 776.90 L 134.40 772.80 L 131.80 770.60 L 126.00 767.00 L 123.30 766.30 L 119.10 767.00 L 117.30 767.70 L 112.50 771.10 L 110.30 772.30 L 108.20 772.90 L 106.00 772.80 L 99.70 771.20 L 92.60 770.90 L 90.20 771.30 L 88.10 772.20 L 86.30 773.60 L 84.70 775.40 L 82.90 779.00 L 83.40 780.90 L 85.70 783.50 L 96.10 792.90 L 98.20 795.70 L 98.10 798.60 L 99.70 801.20 L 101.20 802.70 L 103.80 804.40 L 114.90 809.00 L 120.80 812.10 L 123.20 814.40 L 123.90 815.90 L 124.50 819.10 L 125.00 820.10 L 127.20 821.80 L 148.40 828.70 L 150.20 830.30 L 151.00 834.90 L 151.80 836.80 L 153.00 838.50 L 156.30 841.00 L 162.70 843.80 L 167.10 845.30 L 176.20 847.10 L 185.50 847.30 L 195.00 845.90 L 197.20 845.20 L 198.90 844.30 L 200.20 843.00 L 201.20 841.40 L 201.90 839.40 L 202.30 836.90 L 202.30 833.00 L 201.90 829.40 L 201.10 826.00 L 198.40 819.50 L 196.70 816.40 L 193.60 812.00 L 190.10 807.80 Z" fill="#b0c6da" fill-rule="nonzero" node-id="159" stroke="none" target-height="81" target-width="119.4" target-x="82.9" target-y="766.3"></path><path d="M 191.00 838.00 L 190.30 837.90 L 179.70 827.80 L 170.10 819.20 L 161.40 812.00 L 152.40 805.10 L 137.40 794.80 L 130.10 790.50 L 118.20 784.50 L 110.20 781.20 L 104.20 779.10 L 94.30 776.60 L 93.90 776.40 L 94.20 775.70 L 99.00 776.60 L 104.50 778.10 L 110.60 780.20 L 118.70 783.60 L 130.60 789.60 L 137.90 793.90 L 153.10 804.30 L 162.10 811.20 L 170.80 818.40 L 180.50 827.00 L 191.10 837.20 L 191.00 838.00 Z" fill="#95b4ce" fill-rule="nonzero" node-id="161" stroke="none" target-height="62.299988" target-width="97.200005" target-x="93.9" target-y="775.7"></path><path d="M 787.20 834.60 L 788.30 834.40 L 802.90 820.40 L 816.30 808.20 L 828.70 797.60 L 841.40 787.40 L 852.90 778.60 L 863.50 771.20 L 874.30 764.10 L 884.00 758.20 L 892.70 753.40 L 909.30 745.20 L 926.10 738.60 L 933.80 736.20 L 947.10 733.00 L 947.70 732.60 L 947.70 732.00 L 947.30 731.50 L 946.60 731.40 L 940.30 732.80 L 925.50 737.10 L 908.60 743.70 L 891.80 751.90 L 883.10 756.80 L 873.30 762.70 L 862.50 769.80 L 851.90 777.30 L 840.20 786.10 L 827.50 796.30 L 815.00 807.00 L 801.50 819.20 L 786.90 833.30 L 786.70 833.80 L 787.20 834.60 Z" fill="#95b4ce" fill-rule="nonzero" node-id="163" stroke="none" target-height="103.19995" target-width="161" target-x="786.7" target-y="731.4"></path></svg>