<?xml version="1.0" standalone="no"?><!DOCTYPE svg PUBLIC "-//W3C//DTD SVG 1.1//EN" "http://www.w3.org/Graphics/SVG/1.1/DTD/svg11.dtd"><svg height="1024" node-id="1" sillyvg="true" template-height="1024" template-width="1024" version="1.1" viewBox="0 0 1024 1024" width="1024" xmlns="http://www.w3.org/2000/svg" xmlns:xlink="http://www.w3.org/1999/xlink"><defs node-id="81"></defs><g node-id="263"><g node-id="280"><path d="M 139.30 229.50 L 136.70 224.90 L 133.80 220.70 L 130.50 216.90 L 126.90 213.60 L 122.90 210.50 L 118.70 207.90 L 114.40 205.80 L 109.80 204.10 L 105.00 202.80 L 100.30 201.90 L 95.40 201.60 L 90.40 201.70 L 85.50 202.40 L 80.60 203.50 L 75.70 205.20 L 70.90 207.40 L 66.50 210.00 L 62.50 213.00 L 58.90 216.20 L 55.70 219.80 L 52.80 223.70 L 50.40 227.80 L 48.30 232.10 L 46.60 236.60 L 45.40 241.20 L 44.60 245.90 L 44.20 250.60 L 44.30 255.50 L 44.80 260.30 L 45.80 265.00 L 47.40 269.70 L 49.40 274.40 L 51.80 278.70 L 54.50 282.60 L 57.60 286.20 L 60.90 289.40 L 64.50 292.30 L 68.30 294.90 L 72.40 297.10 L 76.60 298.90 L 85.70 301.90 L 90.30 303.80 L 94.60 306.20 L 98.70 308.90 L 102.50 312.00 L 106.10 315.40 L 109.20 319.20 L 112.00 323.30 L 114.50 327.70 L 142.40 313.80 L 140.40 309.20 L 138.90 304.50 L 137.80 299.70 L 137.20 294.80 L 137.00 289.90 L 137.30 285.00 L 138.10 280.10 L 139.20 275.30 L 142.40 266.20 L 143.60 261.70 L 144.30 257.10 L 144.50 252.50 L 144.40 247.90 L 143.80 243.20 L 142.80 238.60 L 141.30 234.00 L 139.30 229.50 Z" fill="#367cff" fill-opacity="0.2" fill-rule="nonzero" group-id="1,18" node-id="88" stroke="none" target-height="126.100006" target-width="100.3" target-x="44.2" target-y="201.6"></path></g><g node-id="281"><g node-id="295"><path d="M 123.00 323.60 L 80.90 266.50 L 80.40 264.80 L 81.20 263.10 L 84.00 261.10 L 85.80 260.50 L 89.40 260.60 L 90.40 258.70 L 92.00 256.80 L 93.80 255.40 L 95.40 254.60 L 98.40 254.20 L 100.90 254.70 L 102.30 255.40 L 103.20 253.10 L 104.30 251.40 L 105.50 250.20 L 106.90 249.40 L 109.20 249.00 L 110.10 249.30 L 111.00 250.10 L 133.80 318.10 L 132.30 318.60 L 109.80 251.10 L 108.70 250.60 L 107.40 250.90 L 106.20 251.60 L 105.10 252.80 L 103.60 256.40 L 105.40 258.20 L 106.80 260.10 L 107.70 262.20 L 108.10 264.10 L 108.00 265.30 L 107.50 266.20 L 106.70 266.90 L 104.70 267.20 L 103.80 266.80 L 102.90 265.90 L 102.30 264.60 L 101.70 261.30 L 101.90 257.00 L 100.30 256.20 L 98.40 255.80 L 96.70 255.90 L 94.90 256.60 L 93.00 257.90 L 90.80 261.10 L 94.20 263.60 L 95.90 265.60 L 97.00 267.50 L 97.50 269.90 L 96.50 271.40 L 95.40 271.80 L 93.40 271.30 L 90.80 269.00 L 89.60 267.00 L 89.00 265.30 L 88.90 261.90 L 86.10 261.80 L 84.60 262.30 L 83.20 263.10 L 81.90 264.60 L 82.10 265.30 L 124.20 322.40 L 123.00 323.60 Z M 103.40 258.20 L 103.50 262.80 L 104.10 264.60 L 104.80 265.50 L 106.10 265.50 L 106.50 265.00 L 106.40 262.80 L 105.70 261.20 L 103.40 258.20 Z M 90.50 262.70 L 90.60 264.90 L 91.10 266.60 L 92.10 268.30 L 93.20 269.50 L 94.50 270.30 L 95.60 270.40 L 95.90 270.10 L 95.90 269.10 L 95.60 268.20 L 93.30 264.90 L 90.50 262.70 Z" fill="#ffffff" fill-rule="nonzero" group-id="1,19,33" node-id="94" stroke="none" target-height="74.600006" target-width="53.4" target-x="80.4" target-y="249"></path></g></g><g node-id="282"><path d="M 110.10 318.70 L 138.00 304.80 L 139.80 309.10 L 140.30 311.70 L 140.40 314.40 L 140.00 317.10 L 139.10 319.50 L 137.90 321.90 L 136.20 324.00 L 134.20 325.80 L 131.80 327.30 L 129.10 328.30 L 126.50 328.80 L 123.80 328.90 L 121.10 328.50 L 118.70 327.60 L 116.30 326.40 L 114.20 324.70 L 112.40 322.70 L 110.10 318.70 Z" fill="#367cff" fill-rule="nonzero" group-id="1,20" node-id="99" stroke="none" target-height="24.100006" target-width="30.299995" target-x="110.1" target-y="304.8"></path></g><path d="M 110.10 318.70 L 138.00 304.80 L 139.80 309.10 L 140.30 311.70 L 140.40 314.40 L 140.00 317.10 L 139.10 319.50 L 137.90 321.90 L 136.20 324.00 L 134.20 325.80 L 131.80 327.30 L 129.10 328.30 L 126.50 328.80 L 123.80 328.90 L 121.10 328.50 L 118.70 327.60 L 116.30 326.40 L 114.20 324.70 L 112.40 322.70 L 110.10 318.70 Z" fill="#ffffff" fill-opacity="0.5" fill-rule="nonzero" group-id="1,21" node-id="103" stroke="none" target-height="24.100006" target-width="30.299995" target-x="110.1" target-y="304.8"></path></g><g node-id="264"><g node-id="284"><path d="M 166.20 457.10 L 161.70 458.50 L 161.30 457.00 L 165.70 455.60 L 166.20 457.10 Z" fill="#777f99" fill-rule="nonzero" group-id="2,22" node-id="111" stroke="none" target-height="2.899994" target-width="4.899994" target-x="161.3" target-y="455.6"></path></g><g node-id="285"><path d="M 152.40 460.50 L 143.00 461.30 L 143.00 459.70 L 152.30 458.90 L 152.40 460.50 Z M 133.50 461.00 L 124.10 459.50 L 124.40 458.00 L 133.60 459.50 L 133.50 461.00 Z M 115.00 456.90 L 106.30 453.20 L 107.00 451.80 L 115.50 455.50 L 115.00 456.90 Z M 98.10 448.40 L 90.50 442.70 L 91.50 441.50 L 98.90 447.10 L 98.10 448.40 Z M 83.80 436.00 L 77.90 428.60 L 79.20 427.70 L 85.00 434.90 L 83.80 436.00 Z M 74.30 419.80 L 72.90 420.50 L 69.00 411.90 L 70.50 411.30 L 72.20 415.70 L 74.30 419.80 Z M 67.60 402.50 L 66.10 402.90 L 65.10 398.20 L 64.40 393.60 L 66.00 393.40 L 67.60 402.50 Z M 65.30 384.10 L 63.70 384.10 L 63.80 379.40 L 64.30 374.60 L 65.90 374.80 L 65.30 384.10 Z M 67.70 365.70 L 66.20 365.30 L 69.10 356.30 L 70.60 356.90 L 69.00 361.20 L 67.70 365.70 Z M 74.40 348.40 L 73.00 347.70 L 78.00 339.60 L 79.30 340.50 L 74.40 348.40 Z" fill="#777f99" fill-rule="nonzero" group-id="2,23" node-id="116" stroke="none" target-height="121.69998" target-width="88.7" target-x="63.7" target-y="339.6"></path></g><path d="M 85.10 333.30 L 83.90 332.20 L 87.20 328.80 L 88.30 329.90 L 85.10 333.30 Z" fill="#777f99" fill-rule="nonzero" group-id="2,24" node-id="121" stroke="none" target-height="4.5" target-width="4.4000015" target-x="83.9" target-y="328.8"></path></g><g node-id="265"><g node-id="287"><path d="M 139.10 209.90 L 137.70 209.00 L 140.00 203.70 L 141.40 204.70 L 139.10 209.90 Z" fill="#777f99" fill-rule="nonzero" group-id="3,25" node-id="129" stroke="none" target-height="6.199997" target-width="3.699997" target-x="137.7" target-y="203.7"></path></g><g node-id="288"><path d="M 275.20 236.70 L 273.30 225.60 L 274.80 225.00 L 276.80 236.30 L 275.20 236.70 Z M 270.30 215.00 L 266.30 204.90 L 267.70 203.90 L 271.80 214.30 L 270.30 215.00 Z M 261.40 195.40 L 255.60 186.80 L 256.70 185.40 L 262.60 194.20 L 261.40 195.40 Z M 146.30 195.30 L 145.10 194.10 L 151.00 185.30 L 152.10 186.70 L 146.30 195.30 Z M 249.10 179.10 L 245.50 175.60 L 241.80 172.60 L 242.60 170.90 L 250.00 177.60 L 249.10 179.10 Z M 158.60 179.10 L 157.60 177.50 L 165.00 170.80 L 165.80 172.50 L 158.60 179.10 Z M 234.00 167.30 L 225.70 163.20 L 226.20 161.30 L 234.70 165.50 L 234.00 167.30 Z M 173.70 167.20 L 173.10 165.40 L 177.30 163.20 L 181.60 161.20 L 182.10 163.10 L 173.70 167.20 Z M 217.10 160.40 L 208.30 159.00 L 208.40 157.00 L 217.40 158.40 L 217.10 160.40 Z M 190.60 160.40 L 190.30 158.40 L 199.30 157.00 L 199.40 159.00 L 190.60 160.40 Z" fill="#777f99" fill-rule="nonzero" group-id="3,26" node-id="134" stroke="none" target-height="79.7" target-width="131.69998" target-x="145.1" target-y="157"></path></g><path d="M 277.70 254.10 L 276.10 254.00 L 276.10 248.10 L 277.70 248.00 L 277.70 254.10 Z" fill="#777f99" fill-rule="nonzero" group-id="3,27" node-id="139" stroke="none" target-height="6.100006" target-width="1.6000061" target-x="276.1" target-y="248"></path></g><g node-id="266"><path d="M 956.80 353.80 L 948.60 353.80 L 946.80 353.20 L 945.60 351.70 L 943.40 346.40 L 943.10 345.50 L 943.40 343.60 L 949.80 337.00 L 950.50 336.00 L 950.70 334.80 L 950.50 333.60 L 949.80 332.50 L 937.20 319.90 L 936.20 319.20 L 935.00 319.00 L 933.80 319.20 L 932.70 319.90 L 926.70 325.90 L 925.00 326.80 L 923.10 326.50 L 917.00 324.00 L 915.90 322.40 L 915.80 321.40 L 915.80 313.00 L 915.60 311.80 L 914.90 310.80 L 913.90 310.10 L 912.60 309.80 L 894.80 309.80 L 893.50 310.10 L 892.50 310.70 L 891.90 311.70 L 891.60 313.00 L 891.60 321.40 L 891.40 322.40 L 890.30 323.90 L 884.30 326.50 L 882.40 326.80 L 880.70 325.90 L 874.70 319.90 L 873.70 319.20 L 872.50 319.00 L 871.30 319.20 L 870.20 319.90 L 857.60 332.50 L 856.90 333.50 L 856.70 334.70 L 856.90 335.90 L 857.60 337.00 L 863.40 342.80 L 864.00 343.60 L 864.30 345.50 L 861.80 351.70 L 860.70 353.20 L 858.80 353.80 L 850.60 353.80 L 849.30 354.10 L 848.30 354.70 L 847.70 355.70 L 847.40 357.00 L 847.40 374.90 L 847.60 376.10 L 848.30 377.10 L 849.30 377.80 L 850.60 378.10 L 858.60 378.10 L 859.60 378.30 L 861.20 379.40 L 863.80 385.70 L 864.10 387.60 L 863.20 389.30 L 857.60 394.90 L 856.90 395.90 L 856.70 397.10 L 856.90 398.30 L 857.60 399.40 L 870.20 412.00 L 871.20 412.70 L 872.40 412.90 L 873.60 412.70 L 874.70 412.00 L 881.00 405.90 L 882.90 405.60 L 883.90 405.90 L 889.40 408.20 L 891.00 409.30 L 891.60 411.20 L 891.60 419.00 L 891.90 420.30 L 892.50 421.30 L 893.50 421.90 L 894.80 422.20 L 912.70 422.20 L 914.00 421.90 L 915.00 421.30 L 915.60 420.30 L 915.90 419.00 L 915.90 411.10 L 916.10 410.10 L 917.20 408.50 L 923.60 405.80 L 925.50 405.50 L 927.30 406.40 L 932.80 411.90 L 933.80 412.60 L 935.00 412.80 L 936.20 412.60 L 937.30 411.90 L 949.90 399.30 L 950.60 398.30 L 950.80 397.10 L 950.60 395.90 L 949.90 394.80 L 944.30 389.20 L 943.70 388.40 L 943.40 386.50 L 945.90 380.20 L 947.00 378.60 L 948.90 378.00 L 956.90 378.00 L 958.20 377.70 L 959.20 377.10 L 959.80 376.10 L 960.10 374.80 L 960.10 356.90 L 959.80 355.70 L 959.10 354.70 L 958.10 354.10 L 956.80 353.80 Z M 903.80 392.20 L 900.20 391.90 L 896.80 391.30 L 893.50 390.10 L 890.50 388.60 L 887.70 386.70 L 885.10 384.50 L 882.90 381.90 L 881.00 379.10 L 879.50 376.10 L 878.30 372.80 L 877.70 369.40 L 877.40 365.80 L 877.70 362.20 L 878.30 358.80 L 879.50 355.50 L 881.00 352.50 L 882.90 349.70 L 885.10 347.10 L 887.70 344.90 L 890.50 343.00 L 893.50 341.50 L 896.80 340.30 L 900.20 339.70 L 903.80 339.40 L 907.40 339.70 L 910.80 340.30 L 914.10 341.50 L 917.10 343.00 L 919.90 344.90 L 922.50 347.10 L 924.70 349.70 L 926.60 352.50 L 928.10 355.50 L 929.30 358.80 L 929.90 362.20 L 930.20 365.80 L 929.90 369.40 L 929.20 372.80 L 928.10 376.10 L 926.60 379.10 L 924.70 381.90 L 922.40 384.50 L 919.90 386.70 L 917.10 388.60 L 914.00 390.10 L 910.80 391.30 L 907.40 391.90 L 903.80 392.20 Z" fill="#367cff" fill-opacity="0.2" fill-rule="nonzero" group-id="4" node-id="145" stroke="none" target-height="112.400024" target-width="112.69995" target-x="847.4" target-y="309.8"></path></g><g node-id="267"><path d="M 903.80 403.10 L 896.30 402.30 L 889.30 400.20 L 885.00 398.00 L 881.10 395.30 L 877.50 392.20 L 874.40 388.60 L 871.70 384.70 L 869.50 380.40 L 867.40 373.40 L 866.60 365.90 L 867.40 358.40 L 869.50 351.40 L 871.70 347.10 L 874.40 343.20 L 877.50 339.60 L 881.10 336.50 L 885.00 333.80 L 889.30 331.60 L 896.30 329.50 L 899.90 328.90 L 903.80 328.70 L 907.70 328.90 L 914.90 330.40 L 918.30 331.60 L 922.60 333.80 L 926.50 336.50 L 930.10 339.60 L 933.20 343.20 L 935.90 347.10 L 938.10 351.40 L 940.20 358.40 L 941.00 365.90 L 940.20 373.40 L 938.10 380.40 L 935.90 384.70 L 933.20 388.60 L 930.10 392.20 L 926.50 395.30 L 922.60 398.00 L 918.30 400.20 L 911.30 402.30 L 903.80 403.10 Z" fill="#ffffff" fill-rule="nonzero" group-id="5" node-id="150" stroke="none" target-height="74.399994" target-width="74.400024" target-x="866.6" target-y="328.7"></path></g><g node-id="268"><g node-id="290"><path d="M 939.80 416.20 L 936.30 413.10 L 937.30 411.90 L 940.80 415.00 L 939.80 416.20 Z" fill="#777f99" fill-rule="nonzero" group-id="6,28" node-id="157" stroke="none" target-height="4.3000183" target-width="4.5" target-x="936.3" target-y="411.9"></path></g><g node-id="291"><path d="M 868.80 605.60 L 868.80 604.00 L 877.90 603.40 L 878.10 605.00 L 868.80 605.60 Z M 859.50 605.40 L 850.30 604.50 L 850.50 603.00 L 859.60 603.90 L 859.50 605.40 Z M 887.30 603.50 L 887.00 602.00 L 895.90 599.90 L 896.30 601.40 L 887.30 603.50 Z M 905.20 598.40 L 904.60 596.90 L 913.00 593.30 L 913.70 594.70 L 905.20 598.40 Z M 921.90 590.40 L 921.10 589.10 L 928.80 584.10 L 929.70 585.40 L 921.90 590.40 Z M 937.00 579.60 L 936.00 578.40 L 942.70 572.20 L 943.80 573.30 L 937.00 579.60 Z M 950.10 566.40 L 948.90 565.40 L 954.50 558.20 L 955.80 559.10 L 950.10 566.40 Z M 960.90 551.30 L 959.60 550.50 L 963.90 542.40 L 965.30 543.10 L 960.90 551.30 Z M 968.90 534.50 L 967.40 533.90 L 970.30 525.20 L 971.80 525.60 L 968.90 534.50 Z M 973.90 516.70 L 972.40 516.40 L 973.80 507.30 L 975.40 507.50 L 973.90 516.70 Z M 975.90 498.20 L 974.30 498.20 L 974.10 489.00 L 975.70 488.90 L 975.90 498.20 Z M 973.20 479.90 L 971.50 470.90 L 973.00 470.50 L 974.70 479.60 L 973.20 479.90 Z M 969.10 462.10 L 965.90 453.50 L 967.30 452.90 L 970.50 461.60 L 969.10 462.10 Z M 962.00 445.20 L 957.40 437.30 L 958.70 436.50 L 963.40 444.50 L 962.00 445.20 Z M 952.10 429.80 L 946.20 422.80 L 947.40 421.70 L 953.40 428.80 L 952.10 429.80 Z" fill="#777f99" fill-rule="nonzero" group-id="6,29" node-id="162" stroke="none" target-height="183.89996" target-width="125.60004" target-x="850.3" target-y="421.7"></path></g><path d="M 841.10 602.80 L 836.50 601.60 L 836.90 600.10 L 841.40 601.20 L 841.10 602.80 Z" fill="#777f99" fill-rule="nonzero" group-id="6,30" node-id="167" stroke="none" target-height="2.7000122" target-width="4.9000244" target-x="836.5" target-y="600.1"></path></g><path d="M 462.20 687.20 L 446.80 863.40 L 545.30 863.40 L 529.90 684.10 Z" fill="#cddcff" fill-rule="nonzero" node-id="171" stroke="none" target-height="179.30005" target-width="98.5" target-x="446.8" target-y="684.1"></path><path d="M 462.20 687.20 L 456.60 718.40 L 535.50 718.20 L 529.90 684.10 Z" fill="#9ca3b5" fill-rule="nonzero" node-id="173" stroke="none" target-height="34.30005" target-width="78.899994" target-x="456.6" target-y="684.1"></path><path d="M 182.30 253.10 L 822.20 253.10 L 825.60 253.40 L 828.70 254.30 L 831.60 255.70 L 834.30 257.50 L 836.50 259.70 L 838.30 262.40 L 839.70 265.30 L 840.60 268.40 L 840.90 271.80 L 840.90 680.80 L 840.60 684.20 L 839.70 687.30 L 838.30 690.20 L 836.50 692.90 L 834.30 695.10 L 831.60 696.90 L 828.70 698.30 L 825.60 699.20 L 822.20 699.50 L 182.30 699.50 L 178.90 699.20 L 175.80 698.30 L 172.90 696.90 L 170.20 695.10 L 168.00 692.90 L 166.20 690.20 L 164.80 687.30 L 163.90 684.20 L 163.60 680.80 L 163.60 271.80 L 163.90 268.40 L 164.80 265.30 L 166.20 262.40 L 168.00 259.70 L 170.20 257.50 L 172.90 255.70 L 175.80 254.30 L 178.90 253.40 L 182.30 253.10 Z" fill="#bcd6f6" fill-rule="nonzero" node-id="175" stroke="none" target-height="446.4" target-width="677.30005" target-x="163.6" target-y="253.1"></path><path d="M 229.50 309.10 L 776.50 309.10 L 778.30 309.40 L 779.90 310.00 L 781.20 311.10 L 782.20 312.40 L 782.90 313.90 L 783.10 315.70 L 783.10 638.60 L 782.80 640.40 L 782.20 642.00 L 781.10 643.30 L 779.80 644.30 L 778.30 645.00 L 776.50 645.20 L 229.50 645.20 L 227.70 644.90 L 226.10 644.30 L 224.80 643.30 L 223.80 641.90 L 223.10 640.40 L 222.90 638.60 L 222.90 315.80 L 223.20 314.00 L 223.80 312.40 L 224.90 311.10 L 226.20 310.00 L 227.70 309.40 L 229.50 309.10 Z" fill="#ffffff" fill-rule="nonzero" node-id="177" stroke="none" target-height="336.1" target-width="560.19995" target-x="222.9" target-y="309.1"></path><path d="M 222.90 309.10 L 783.20 309.10 L 783.20 348.60 L 222.90 348.60 Z" fill="#e7eaf2" fill-rule="nonzero" node-id="179" stroke="none" target-height="39.5" target-width="560.30005" target-x="222.9" target-y="309.1"></path><g node-id="269"><path d="M 412.90 818.60 L 579.20 818.60 L 581.70 818.80 L 584.00 819.50 L 586.20 820.50 L 588.10 821.90 L 589.70 823.50 L 592.10 827.60 L 592.80 829.90 L 593.00 832.40 L 592.80 834.90 L 592.10 837.20 L 591.10 839.40 L 589.70 841.30 L 586.20 844.30 L 584.00 845.30 L 581.70 846.00 L 579.20 846.20 L 412.90 846.20 L 410.40 846.00 L 408.10 845.30 L 405.90 844.30 L 402.40 841.30 L 400.00 837.20 L 399.30 834.90 L 399.10 832.40 L 399.30 829.90 L 400.00 827.60 L 401.00 825.40 L 402.40 823.50 L 404.00 821.90 L 405.90 820.50 L 408.10 819.50 L 410.40 818.80 L 412.90 818.60 Z" fill="#253369" fill-rule="nonzero" group-id="7" node-id="183" stroke="none" target-height="27.600037" target-width="193.9" target-x="399.1" target-y="818.6"></path></g><g node-id="270"><path d="M 255.80 330.60 L 255.60 332.20 L 254.40 335.10 L 252.10 337.40 L 249.20 338.60 L 246.00 338.60 L 243.10 337.40 L 240.80 335.10 L 239.60 332.20 L 239.60 329.00 L 240.80 326.10 L 243.10 323.80 L 246.00 322.60 L 249.20 322.60 L 252.10 323.80 L 254.40 326.10 L 255.60 329.00 L 255.80 330.60 Z" fill="#eb5068" fill-rule="nonzero" group-id="8" node-id="188" stroke="none" target-height="16" target-width="16.199997" target-x="239.6" target-y="322.6"></path></g><g node-id="271"><path d="M 285.50 330.60 L 284.90 333.70 L 283.10 336.40 L 280.40 338.20 L 277.30 338.80 L 275.70 338.60 L 272.80 337.40 L 270.50 335.10 L 269.30 332.20 L 269.30 329.00 L 270.50 326.10 L 272.80 323.80 L 275.70 322.60 L 278.90 322.60 L 281.80 323.80 L 284.10 326.10 L 285.30 329.00 L 285.50 330.60 Z" fill="#f7cc5c" fill-rule="nonzero" group-id="9" node-id="193" stroke="none" target-height="16.199982" target-width="16.200012" target-x="269.3" target-y="322.6"></path></g><g node-id="272"><path d="M 315.20 330.60 L 315.00 332.20 L 313.80 335.10 L 311.50 337.40 L 308.60 338.60 L 305.40 338.60 L 302.50 337.40 L 300.20 335.10 L 299.00 332.20 L 299.00 329.00 L 300.20 326.10 L 302.50 323.80 L 305.40 322.60 L 308.60 322.60 L 311.50 323.80 L 313.80 326.10 L 315.00 329.00 L 315.20 330.60 Z" fill="#58c398" fill-rule="nonzero" group-id="10" node-id="198" stroke="none" target-height="16" target-width="16.200012" target-x="299" target-y="322.6"></path></g><path d="M 249.30 371.70 L 585.50 371.70 L 585.50 523.30 L 249.30 523.30 Z" fill="#dee6ff" fill-rule="nonzero" node-id="201" stroke="none" target-height="151.59998" target-width="336.2" target-x="249.3" target-y="371.7"></path><path d="M 600.60 396.70 L 745.40 396.70 L 745.40 626.50 L 600.60 626.50 Z" fill="#dee6ff" fill-rule="nonzero" node-id="203" stroke="none" target-height="229.79999" target-width="144.80005" target-x="600.6" target-y="396.7"></path><g node-id="273"><path d="M 249.30 595.90 L 427.30 595.90 L 427.30 612.40 L 249.30 612.40 Z" fill="#f2f7ff" fill-rule="nonzero" group-id="11" node-id="207" stroke="none" target-height="16.5" target-width="177.99998" target-x="249.3" target-y="595.9"></path></g><g node-id="274"><path d="M 249.30 569.50 L 493.20 569.50 L 493.20 586.00 L 249.30 586.00 Z" fill="#f2f7ff" fill-rule="nonzero" group-id="12" node-id="212" stroke="none" target-height="16.5" target-width="243.90001" target-x="249.3" target-y="569.5"></path></g><path d="M 249.30 543.10 L 585.50 543.10 L 585.50 559.60 L 249.30 559.60 Z" fill="#dee6ff" fill-rule="nonzero" node-id="215" stroke="none" target-height="16.5" target-width="336.2" target-x="249.3" target-y="543.1"></path><g node-id="275"><path d="M 786.40 541.10 L 675.20 733.40 L 673.90 736.20 L 673.10 738.90 L 672.90 741.80 L 673.10 744.70 L 673.80 747.40 L 675.00 750.00 L 676.60 752.40 L 678.60 754.50 L 681.10 756.30 L 685.30 758.10 L 689.90 758.60 L 912.10 758.60 L 915.10 758.30 L 917.90 757.60 L 920.50 756.30 L 922.90 754.70 L 924.90 752.70 L 926.50 750.30 L 927.80 747.80 L 928.50 745.00 L 928.80 742.00 L 928.20 737.70 L 926.60 733.70 L 815.20 541.10 L 813.40 538.60 L 811.40 536.60 L 809.00 534.90 L 806.40 533.70 L 803.70 533.00 L 800.80 532.80 L 798.00 533.00 L 795.20 533.70 L 792.40 535.00 L 790.00 536.70 L 788.00 538.70 L 786.40 541.10 Z" fill="#eb5068" fill-rule="nonzero" group-id="13" node-id="219" stroke="none" target-height="225.79999" target-width="255.89996" target-x="672.9" target-y="532.8"></path></g><g node-id="276"><path d="M 800.70 703.10 L 804.40 703.70 L 807.50 705.50 L 809.80 708.20 L 811.00 711.50 L 811.10 715.30 L 809.80 718.70 L 808.80 720.20 L 806.10 722.50 L 802.80 723.70 L 799.00 723.80 L 795.60 722.50 L 794.10 721.50 L 791.80 718.80 L 790.60 715.50 L 790.60 711.60 L 791.20 709.60 L 792.10 707.80 L 793.40 706.20 L 794.90 704.90 L 796.70 703.90 L 800.70 703.10 Z M 809.80 607.50 L 802.70 691.70 L 797.10 691.70 L 790.80 607.50 L 790.80 604.90 L 791.20 602.30 L 792.00 599.90 L 793.20 597.60 L 794.30 595.80 L 795.80 594.50 L 797.60 593.60 L 799.50 593.10 L 801.50 593.20 L 803.50 593.80 L 805.10 594.80 L 806.30 596.00 L 808.50 599.90 L 809.30 602.30 L 809.80 607.50 Z" fill="#ffffff" fill-rule="nonzero" group-id="14" node-id="224" stroke="none" target-height="130.70001" target-width="20.5" target-x="790.6" target-y="593.1"></path></g><g node-id="277"><g node-id="293"><path d="M 900.10 294.40 L 897.90 285.50 L 899.40 285.10 L 901.60 294.10 L 900.10 294.40 Z M 895.10 276.70 L 891.90 268.10 L 893.30 267.50 L 896.60 276.20 L 895.10 276.70 Z M 888.10 259.70 L 883.90 251.50 L 885.30 250.70 L 889.60 259.00 L 888.10 259.70 Z M 610.80 250.00 L 609.40 249.20 L 614.20 241.30 L 615.50 242.20 L 610.80 250.00 Z M 879.20 243.60 L 874.00 236.00 L 875.30 235.10 L 880.50 242.80 L 879.20 243.60 Z M 620.90 234.60 L 619.60 233.70 L 625.30 226.40 L 626.50 227.40 L 620.90 234.60 Z M 868.40 228.60 L 862.40 221.60 L 863.60 220.50 L 869.70 227.50 L 868.40 228.60 Z M 632.70 220.40 L 631.60 219.30 L 638.20 212.70 L 639.30 213.80 L 632.70 220.40 Z M 856.00 215.10 L 849.20 208.90 L 850.20 207.70 L 857.10 214.00 L 856.00 215.10 Z M 646.00 207.80 L 645.00 206.60 L 652.30 200.80 L 653.20 202.10 L 646.00 207.80 Z M 842.10 203.00 L 834.60 197.60 L 835.50 196.30 L 843.10 201.70 L 842.10 203.00 Z M 660.80 196.80 L 659.90 195.50 L 667.80 190.60 L 668.60 192.00 L 660.80 196.80 Z M 826.80 192.70 L 818.70 188.30 L 819.40 186.90 L 827.50 191.40 L 826.80 192.70 Z M 676.70 187.60 L 676.00 186.20 L 684.40 182.30 L 685.00 183.70 L 676.70 187.60 Z M 810.40 184.30 L 801.90 180.80 L 802.40 179.30 L 811.00 182.80 L 810.40 184.30 Z M 693.60 180.30 L 693.10 178.80 L 701.90 175.90 L 702.30 177.40 L 693.60 180.30 Z M 793.20 177.90 L 784.30 175.40 L 784.70 173.90 L 793.70 176.40 L 793.20 177.90 Z M 711.30 175.00 L 710.90 173.50 L 720.00 171.60 L 720.30 173.10 L 711.30 175.00 Z M 775.30 173.50 L 766.20 172.10 L 766.40 170.50 L 775.60 171.90 L 775.30 173.50 Z M 729.40 171.90 L 729.20 170.30 L 738.50 169.50 L 738.60 171.10 L 729.40 171.90 Z M 757.00 171.20 L 747.80 170.90 L 747.80 169.30 L 757.10 169.60 L 757.00 171.20 Z" fill="#777f99" fill-rule="nonzero" group-id="15,31" node-id="231" stroke="none" target-height="125.09999" target-width="292.19995" target-x="609.4" target-y="169.3"></path></g><path d="M 902.40 308.20 L 901.80 303.60 L 903.30 303.40 L 904.00 308.10 L 902.40 308.20 Z" fill="#777f99" fill-rule="nonzero" group-id="15,32" node-id="236" stroke="none" target-height="4.8000183" target-width="2.2000122" target-x="901.8" target-y="303.4"></path></g><path d="M 748.50 844.50 L 748.50 773.20 L 700.90 773.20 L 700.90 844.50 L 701.20 845.40 L 722.00 857.60 L 724.90 858.20 L 727.90 857.40 L 747.00 846.40 L 748.00 845.60 L 748.50 844.50 Z" fill="#949fff" fill-rule="nonzero" node-id="240" stroke="none" target-height="85" target-width="47.599976" target-x="700.9" target-y="773.2"></path><path d="M 722.00 786.50 L 701.90 774.90 L 701.10 774.10 L 700.90 773.20 L 701.30 772.40 L 702.30 771.50 L 721.40 760.50 L 722.90 759.90 L 726.00 759.80 L 727.30 760.20 L 747.40 771.80 L 748.20 772.60 L 748.40 773.50 L 748.00 774.30 L 747.00 775.20 L 727.90 786.20 L 724.90 787.00 L 722.00 786.50 Z" fill="#dee6ff" fill-rule="nonzero" node-id="242" stroke="none" target-height="27.200012" target-width="47.5" target-x="700.9" target-y="759.8"></path><path d="M 117.30 842.80 L 117.30 668.60 L 69.70 668.60 L 69.70 842.80 L 70.00 843.70 L 70.70 844.30 L 90.80 855.90 L 92.10 856.40 L 93.70 856.50 L 96.70 855.70 L 115.80 844.70 L 116.70 843.90 L 117.30 842.80 Z" fill="#dee1f0" fill-rule="nonzero" node-id="244" stroke="none" target-height="187.90002" target-width="47.600006" target-x="69.7" target-y="668.6"></path><g node-id="278"><path d="M 90.80 681.80 L 70.70 670.20 L 69.90 669.40 L 69.70 668.50 L 70.10 667.70 L 71.10 666.80 L 90.20 655.80 L 93.20 655.00 L 96.10 655.50 L 116.20 667.10 L 117.00 667.90 L 117.20 668.80 L 116.80 669.60 L 115.80 670.50 L 96.70 681.50 L 95.30 682.10 L 93.70 682.40 L 92.10 682.30 L 90.80 681.80 Z" fill="#fafbfd" fill-rule="nonzero" group-id="16" node-id="247" stroke="none" target-height="27.400024" target-width="47.5" target-x="69.7" target-y="655"></path></g><g node-id="279"><path d="M 987.30 867.20 L 40.30 867.20 L 40.60 861.00 L 41.40 858.10 L 42.60 855.50 L 44.30 853.10 L 46.30 851.10 L 48.70 849.40 L 51.30 848.20 L 54.20 847.40 L 57.30 847.10 L 970.30 847.10 L 973.40 847.40 L 976.30 848.20 L 978.90 849.40 L 981.30 851.10 L 983.30 853.10 L 985.00 855.50 L 986.20 858.10 L 987.00 861.00 L 987.30 867.20 Z" fill="#b2c7db" fill-rule="nonzero" group-id="17" node-id="252" stroke="none" target-height="20.100037" target-width="947" target-x="40.3" target-y="847.1"></path></g><path d="M 782.90 812.60 L 780.90 817.20 L 779.50 821.80 L 778.90 824.90 L 779.20 837.10 L 779.70 839.70 L 780.60 842.10 L 782.00 844.30 L 783.90 846.20 L 786.00 847.80 L 788.90 849.10 L 792.40 850.00 L 797.10 850.50 L 823.40 851.30 L 829.50 850.80 L 835.30 849.70 L 840.90 848.10 L 846.30 846.00 L 851.50 843.40 L 856.60 840.20 L 860.50 837.30 L 862.20 835.60 L 864.10 832.10 L 864.70 824.80 L 865.30 823.20 L 866.50 821.60 L 877.20 817.80 L 898.90 811.30 L 903.70 809.10 L 905.60 807.60 L 907.00 805.70 L 908.20 802.40 L 908.70 798.50 L 909.40 797.00 L 911.90 794.40 L 915.10 792.30 L 920.40 789.60 L 939.70 781.80 L 949.70 776.10 L 951.30 774.30 L 951.70 773.30 L 951.70 769.10 L 952.10 766.50 L 952.80 764.30 L 955.30 760.20 L 959.80 756.10 L 967.60 750.00 L 971.90 745.80 L 975.80 741.20 L 975.80 735.30 L 974.50 732.90 L 972.90 730.80 L 971.00 729.10 L 966.60 726.50 L 964.10 725.70 L 960.20 725.00 L 956.20 724.90 L 952.30 725.40 L 942.10 728.30 L 936.20 728.60 L 933.40 728.10 L 927.90 726.10 L 919.50 720.70 L 916.60 719.60 L 913.50 719.00 L 910.40 719.00 L 907.10 719.50 L 903.80 720.60 L 900.70 722.00 L 897.60 724.00 L 894.70 726.40 L 884.70 736.10 L 882.00 737.80 L 879.20 738.80 L 876.20 739.40 L 873.00 739.40 L 866.20 738.40 L 863.00 738.40 L 860.20 739.00 L 857.40 740.00 L 854.70 741.60 L 852.00 743.90 L 847.60 748.60 L 835.70 763.70 L 832.30 767.20 L 830.40 768.50 L 828.40 769.40 L 826.20 769.90 L 821.70 770.00 L 819.90 770.40 L 816.60 772.00 L 811.00 776.00 L 805.80 780.20 L 801.10 784.80 L 796.70 789.70 L 792.70 794.90 L 789.10 800.50 L 785.80 806.40 L 782.90 812.60" fill="#b1c6d9" fill-rule="nonzero" node-id="255" stroke="none" target-height="132.29999" target-width="196.89996" target-x="778.9" target-y="719"></path><path d="M 191.90 813.90 L 187.20 809.10 L 184.50 807.00 L 181.60 805.20 L 178.40 804.00 L 173.20 802.80 L 171.80 802.00 L 168.80 798.80 L 165.10 793.40 L 162.70 790.50 L 157.70 786.10 L 155.30 784.80 L 153.50 784.30 L 151.60 784.30 L 147.30 785.10 L 145.40 785.20 L 141.80 784.10 L 140.20 783.00 L 136.20 778.90 L 133.60 776.70 L 127.80 773.10 L 125.10 772.40 L 120.90 773.10 L 119.10 773.80 L 114.30 777.20 L 112.10 778.40 L 110.00 779.00 L 107.80 778.90 L 101.50 777.40 L 94.40 777.00 L 92.00 777.40 L 89.90 778.30 L 88.10 779.70 L 86.50 781.50 L 84.70 785.10 L 85.20 787.00 L 87.50 789.60 L 97.90 799.00 L 100.00 801.80 L 99.90 804.70 L 101.50 807.30 L 103.00 808.80 L 105.60 810.50 L 116.70 815.10 L 122.60 818.20 L 125.00 820.50 L 125.70 822.00 L 126.30 825.20 L 126.80 826.20 L 129.00 827.90 L 150.20 834.80 L 152.00 836.40 L 152.80 841.00 L 153.60 842.90 L 154.80 844.60 L 158.10 847.10 L 164.50 849.90 L 168.90 851.40 L 178.00 853.20 L 187.30 853.40 L 196.80 852.00 L 199.00 851.30 L 200.70 850.40 L 202.00 849.10 L 203.00 847.50 L 203.70 845.50 L 204.10 843.00 L 204.10 839.10 L 203.70 835.50 L 202.90 832.10 L 200.20 825.60 L 198.50 822.50 L 195.40 818.10 L 191.90 813.90 Z" fill="#b0c6da" fill-rule="nonzero" node-id="257" stroke="none" target-height="81" target-width="119.40001" target-x="84.7" target-y="772.4"></path><path d="M 192.80 844.10 L 192.10 844.00 L 181.50 833.90 L 171.90 825.30 L 163.20 818.10 L 154.20 811.20 L 139.20 800.90 L 131.90 796.60 L 120.00 790.60 L 112.00 787.30 L 106.00 785.20 L 96.10 782.70 L 95.70 782.10 L 96.40 781.70 L 100.80 782.70 L 112.40 786.30 L 126.00 792.30 L 139.70 800.00 L 154.90 810.40 L 163.90 817.30 L 172.60 824.50 L 182.30 833.10 L 192.90 843.30 L 192.80 844.10 Z" fill="#95b4ce" fill-rule="nonzero" node-id="259" stroke="none" target-height="62.399963" target-width="97.2" target-x="95.7" target-y="781.7"></path><path d="M 789.00 840.70 L 790.10 840.50 L 804.70 826.50 L 818.10 814.30 L 830.50 803.70 L 843.20 793.50 L 854.70 784.70 L 865.30 777.30 L 876.10 770.20 L 894.50 759.50 L 911.10 751.30 L 927.90 744.70 L 935.60 742.30 L 948.90 739.10 L 949.50 738.70 L 949.50 738.10 L 949.10 737.60 L 948.40 737.50 L 942.10 738.90 L 927.30 743.20 L 910.40 749.80 L 893.60 758.00 L 884.90 762.90 L 875.10 768.80 L 864.30 775.90 L 853.70 783.40 L 842.00 792.20 L 829.30 802.40 L 816.80 813.10 L 803.30 825.30 L 788.70 839.40 L 788.50 839.90 L 789.00 840.70 Z" fill="#95b4ce" fill-rule="nonzero" node-id="261" stroke="none" target-height="103.20001" target-width="161" target-x="788.5" target-y="737.5"></path></svg>