<?xml version="1.0" standalone="no"?><!DOCTYPE svg PUBLIC "-//W3C//DTD SVG 1.1//EN" "http://www.w3.org/Graphics/SVG/1.1/DTD/svg11.dtd"><svg height="1024" node-id="1" sillyvg="true" template-height="1024" template-width="1024" version="1.1" viewBox="0 0 1024 1024" width="1024" xmlns="http://www.w3.org/2000/svg" xmlns:xlink="http://www.w3.org/1999/xlink"><defs node-id="190"><clipPath id="SVGID_00000075861604485434672050000010717748617165508254_" node-id="154"><path d="M 625.10 310.60 L 385.40 310.60 L 393.00 311.00 L 400.30 311.90 L 407.40 313.40 L 414.30 315.50 L 421.00 318.10 L 427.40 321.10 L 433.60 324.70 L 439.40 328.70 L 444.90 333.10 L 450.00 337.90 L 454.80 343.10 L 459.20 348.60 L 463.10 354.50 L 466.60 360.60 L 469.60 367.10 L 472.10 373.90 L 474.10 380.80 L 475.60 387.90 L 476.50 395.30 L 476.80 403.70 L 721.40 403.70 L 720.80 395.90 L 719.70 388.40 L 718.00 381.20 L 715.70 374.20 L 712.90 367.30 L 709.60 360.80 L 705.90 354.50 L 701.70 348.60 L 697.10 343.00 L 692.10 337.80 L 686.70 332.90 L 681.00 328.50 L 674.90 324.50 L 668.60 321.00 L 661.90 317.90 L 654.90 315.30 L 647.80 313.30 L 640.50 311.80 L 632.90 310.90 L 625.10 310.60 Z" fill="#000000" fill-rule="nonzero" node-id="193" stroke="none" target-height="93.100006" target-width="336.00003" target-x="385.4" target-y="310.6"></path></clipPath></defs><g node-id="662"><g node-id="673"><path d="M 713.50 440.30 L 868.80 440.30 L 872.50 440.60 L 876.00 441.30 L 879.40 442.40 L 882.50 444.00 L 885.40 445.90 L 888.00 448.20 L 890.30 450.80 L 892.20 453.70 L 893.80 456.80 L 894.90 460.20 L 895.60 463.70 L 895.90 467.40 L 895.90 568.60 L 895.60 572.30 L 894.90 575.80 L 893.80 579.20 L 892.20 582.30 L 890.30 585.20 L 888.00 587.80 L 885.40 590.10 L 882.50 592.00 L 879.40 593.60 L 876.00 594.70 L 872.50 595.40 L 868.80 595.70 L 713.50 595.70 L 709.80 595.40 L 706.30 594.70 L 702.90 593.60 L 699.80 592.00 L 696.90 590.10 L 694.30 587.80 L 692.00 585.20 L 690.10 582.30 L 688.50 579.20 L 687.40 575.80 L 686.70 572.30 L 686.40 568.60 L 686.40 467.40 L 686.70 463.70 L 687.40 460.20 L 688.50 456.90 L 690.10 453.70 L 692.00 450.90 L 694.30 448.30 L 696.90 446.00 L 699.80 444.00 L 702.90 442.40 L 706.30 441.30 L 709.80 440.60 L 713.50 440.30 Z" fill="#ffffff" fill-rule="nonzero" group-id="1,12" node-id="200" stroke="none" target-height="155.40002" target-width="209.5" target-x="686.4" target-y="440.3"></path></g><g node-id="674"><g node-id="703"><path d="M 709.60 480.60 L 765.70 480.60 L 765.70 484.70 L 709.60 484.70 Z" fill="#3583f0" fill-opacity="0.52" fill-rule="nonzero" group-id="1,13,42" node-id="207" stroke="none" target-height="4.100006" target-width="56.100037" target-x="709.6" target-y="480.6"></path></g><g node-id="704"><path d="M 709.60 488.50 L 743.80 488.50 L 743.80 492.40 L 709.60 492.40 Z" fill="#3583f0" fill-opacity="0.52" fill-rule="nonzero" group-id="1,13,43" node-id="212" stroke="none" target-height="3.899994" target-width="34.200012" target-x="709.6" target-y="488.5"></path></g><g node-id="705"><path d="M 757.60 488.50 L 865.30 488.50 L 865.30 492.40 L 757.60 492.40 Z" fill="#3583f0" fill-opacity="0.52" fill-rule="nonzero" group-id="1,13,44" node-id="217" stroke="none" target-height="3.899994" target-width="107.70001" target-x="757.6" target-y="488.5"></path></g><g node-id="706"><path d="M 727.40 496.50 L 774.50 496.50 L 774.50 500.60 L 727.40 500.60 Z" fill="#3583f0" fill-opacity="0.52" fill-rule="nonzero" group-id="1,13,45" node-id="222" stroke="none" target-height="4.100006" target-width="47.099976" target-x="727.4" target-y="496.5"></path></g><g node-id="707"><path d="M 742.50 504.40 L 798.60 504.40 L 798.60 508.50 L 742.50 508.50 Z" fill="#3583f0" fill-opacity="0.52" fill-rule="nonzero" group-id="1,13,46" node-id="227" stroke="none" target-height="4.100006" target-width="56.099976" target-x="742.5" target-y="504.4"></path></g><g node-id="708"><path d="M 802.20 504.40 L 849.20 504.40 L 849.20 509.00 L 802.20 509.00 Z" fill="#3583f0" fill-opacity="0.52" fill-rule="nonzero" group-id="1,13,47" node-id="232" stroke="none" target-height="4.600006" target-width="47" target-x="802.2" target-y="504.4"></path></g><g node-id="709"><path d="M 742.40 512.40 L 785.70 512.40 L 785.70 516.30 L 742.40 516.30 Z" fill="#3583f0" fill-opacity="0.52" fill-rule="nonzero" group-id="1,13,48" node-id="237" stroke="none" target-height="3.8999634" target-width="43.299988" target-x="742.4" target-y="512.4"></path></g><g node-id="710"><path d="M 789.90 512.40 L 879.20 512.40 L 879.20 516.70 L 789.90 516.70 Z" fill="#3583f0" fill-opacity="0.52" fill-rule="nonzero" group-id="1,13,49" node-id="242" stroke="none" target-height="4.299988" target-width="89.29999" target-x="789.9" target-y="512.4"></path></g><g node-id="711"><path d="M 709.60 523.20 L 765.70 523.20 L 765.70 527.30 L 709.60 527.30 Z" fill="#3583f0" fill-opacity="0.52" fill-rule="nonzero" group-id="1,13,50" node-id="247" stroke="none" target-height="4.0999756" target-width="56.100037" target-x="709.6" target-y="523.2"></path></g><g node-id="712"><path d="M 709.60 531.10 L 743.80 531.10 L 743.80 535.00 L 709.60 535.00 Z" fill="#3583f0" fill-opacity="0.52" fill-rule="nonzero" group-id="1,13,51" node-id="252" stroke="none" target-height="3.9000244" target-width="34.200012" target-x="709.6" target-y="531.1"></path></g><g node-id="713"><path d="M 757.60 531.10 L 865.30 531.10 L 865.30 535.00 L 757.60 535.00 Z" fill="#3583f0" fill-opacity="0.52" fill-rule="nonzero" group-id="1,13,52" node-id="257" stroke="none" target-height="3.9000244" target-width="107.70001" target-x="757.6" target-y="531.1"></path></g><g node-id="714"><path d="M 727.40 539.10 L 774.50 539.10 L 774.50 543.20 L 727.40 543.20 Z" fill="#3583f0" fill-opacity="0.52" fill-rule="nonzero" group-id="1,13,53" node-id="262" stroke="none" target-height="4.1000366" target-width="47.099976" target-x="727.4" target-y="539.1"></path></g><g node-id="715"><path d="M 742.50 547.10 L 798.60 547.10 L 798.60 551.20 L 742.50 551.20 Z" fill="#3583f0" fill-opacity="0.52" fill-rule="nonzero" group-id="1,13,54" node-id="267" stroke="none" target-height="4.1000366" target-width="56.099976" target-x="742.5" target-y="547.1"></path></g><g node-id="716"><path d="M 802.20 547.10 L 849.20 547.10 L 849.20 551.70 L 802.20 551.70 Z" fill="#3583f0" fill-opacity="0.52" fill-rule="nonzero" group-id="1,13,55" node-id="272" stroke="none" target-height="4.6000366" target-width="47" target-x="802.2" target-y="547.1"></path></g><g node-id="717"><path d="M 742.40 555.00 L 785.70 555.00 L 785.70 558.90 L 742.40 558.90 Z" fill="#3583f0" fill-opacity="0.52" fill-rule="nonzero" group-id="1,13,56" node-id="277" stroke="none" target-height="3.9000244" target-width="43.299988" target-x="742.4" target-y="555"></path></g><path d="M 789.90 555.00 L 879.20 555.00 L 879.20 559.30 L 789.90 559.30 Z" fill="#3583f0" fill-opacity="0.52" fill-rule="nonzero" group-id="1,13,57" node-id="282" stroke="none" target-height="4.299988" target-width="89.29999" target-x="789.9" target-y="555"></path></g><g node-id="675"><path d="M 187.70 581.20 L 376.10 581.20 L 379.70 581.50 L 383.10 582.10 L 386.30 583.30 L 389.40 584.80 L 392.10 586.70 L 394.60 588.90 L 396.90 591.40 L 398.70 594.20 L 400.20 597.20 L 401.40 600.40 L 402.10 603.80 L 402.30 607.40 L 402.30 643.30 L 402.00 646.90 L 401.40 650.30 L 400.20 653.50 L 398.70 656.60 L 396.80 659.30 L 394.60 661.80 L 392.10 664.10 L 389.30 665.90 L 386.30 667.40 L 383.10 668.60 L 379.70 669.30 L 376.10 669.50 L 187.70 669.50 L 184.10 669.20 L 180.70 668.60 L 177.50 667.40 L 174.40 665.90 L 171.70 664.00 L 169.20 661.80 L 166.90 659.30 L 165.10 656.50 L 163.60 653.50 L 162.40 650.30 L 161.70 646.90 L 161.50 643.30 L 161.50 607.40 L 161.70 603.80 L 162.40 600.40 L 163.60 597.20 L 165.10 594.20 L 166.90 591.40 L 169.20 588.90 L 171.70 586.70 L 174.40 584.80 L 177.50 583.30 L 180.70 582.10 L 184.10 581.50 L 187.70 581.20 Z" fill="#3583f0" fill-opacity="0.06" fill-rule="nonzero" group-id="1,14" node-id="288" stroke="none" target-height="88.29999" target-width="240.79999" target-x="161.5" target-y="581.2"></path></g><g node-id="676"><g node-id="719"><path d="M 206.60 599.70 L 262.70 599.70 L 262.70 603.80 L 206.60 603.80 Z" fill="#3583f0" fill-opacity="0.2" fill-rule="nonzero" group-id="1,15,58" node-id="295" stroke="none" target-height="4.0999756" target-width="56.100006" target-x="206.6" target-y="599.7"></path></g><g node-id="720"><path d="M 206.60 607.70 L 240.80 607.70 L 240.80 611.60 L 206.60 611.60 Z" fill="#3583f0" fill-opacity="0.2" fill-rule="nonzero" group-id="1,15,59" node-id="300" stroke="none" target-height="3.8999634" target-width="34.199997" target-x="206.6" target-y="607.7"></path></g><g node-id="721"><path d="M 254.70 607.70 L 362.40 607.70 L 362.40 611.60 L 254.70 611.60 Z" fill="#3583f0" fill-opacity="0.2" fill-rule="nonzero" group-id="1,15,60" node-id="305" stroke="none" target-height="3.8999634" target-width="107.7" target-x="254.7" target-y="607.7"></path></g><g node-id="722"><path d="M 224.50 615.60 L 271.60 615.60 L 271.60 619.70 L 224.50 619.70 Z" fill="#3583f0" fill-opacity="0.2" fill-rule="nonzero" group-id="1,15,61" node-id="310" stroke="none" target-height="4.1000366" target-width="47.100006" target-x="224.5" target-y="615.6"></path></g><g node-id="723"><path d="M 239.60 623.60 L 295.70 623.60 L 295.70 627.70 L 239.60 627.70 Z" fill="#3583f0" fill-opacity="0.2" fill-rule="nonzero" group-id="1,15,62" node-id="315" stroke="none" target-height="4.1000366" target-width="56.100006" target-x="239.6" target-y="623.6"></path></g><g node-id="724"><path d="M 299.30 623.60 L 346.30 623.60 L 346.30 628.20 L 299.30 628.20 Z" fill="#3583f0" fill-opacity="0.2" fill-rule="nonzero" group-id="1,15,63" node-id="320" stroke="none" target-height="4.6000366" target-width="47" target-x="299.3" target-y="623.6"></path></g><g node-id="725"><path d="M 239.50 631.50 L 282.80 631.50 L 282.80 635.40 L 239.50 635.40 Z" fill="#3583f0" fill-opacity="0.2" fill-rule="nonzero" group-id="1,15,64" node-id="325" stroke="none" target-height="3.9000244" target-width="43.299988" target-x="239.5" target-y="631.5"></path></g><g node-id="726"><path d="M 286.90 631.50 L 376.20 631.50 L 376.20 635.80 L 286.90 635.80 Z" fill="#3583f0" fill-opacity="0.2" fill-rule="nonzero" group-id="1,15,65" node-id="330" stroke="none" target-height="4.299988" target-width="89.30002" target-x="286.9" target-y="631.5"></path></g><g node-id="727"><path d="M 206.60 642.30 L 262.70 642.30 L 262.70 646.40 L 206.60 646.40 Z" fill="#3583f0" fill-opacity="0.2" fill-rule="nonzero" group-id="1,15,66" node-id="335" stroke="none" target-height="4.1000366" target-width="56.100006" target-x="206.6" target-y="642.3"></path></g><g node-id="728"><path d="M 206.60 650.30 L 240.80 650.30 L 240.80 654.20 L 206.60 654.20 Z" fill="#3583f0" fill-opacity="0.2" fill-rule="nonzero" group-id="1,15,67" node-id="340" stroke="none" target-height="3.9000244" target-width="34.199997" target-x="206.6" target-y="650.3"></path></g><path d="M 254.70 650.30 L 362.40 650.30 L 362.40 654.20 L 254.70 654.20 Z" fill="#3583f0" fill-opacity="0.2" fill-rule="nonzero" group-id="1,15,68" node-id="345" stroke="none" target-height="3.9000244" target-width="107.7" target-x="254.7" target-y="650.3"></path></g><g node-id="677"><path d="M 100.40 117.40 L 369.10 117.40 L 373.20 117.60 L 377.10 118.30 L 380.70 119.30 L 384.20 120.70 L 387.40 122.40 L 390.20 124.40 L 392.70 126.70 L 394.90 129.30 L 396.60 132.00 L 397.80 134.90 L 398.60 138.00 L 398.90 141.30 L 398.90 383.70 L 398.60 387.00 L 397.80 390.10 L 396.50 393.00 L 394.80 395.70 L 392.70 398.30 L 390.20 400.60 L 387.30 402.60 L 384.20 404.30 L 380.70 405.70 L 377.00 406.70 L 373.20 407.40 L 369.10 407.60 L 100.40 407.60 L 96.30 407.40 L 92.40 406.70 L 88.80 405.70 L 85.30 404.30 L 82.10 402.60 L 79.30 400.60 L 76.80 398.30 L 74.60 395.70 L 72.90 393.00 L 71.70 390.10 L 70.90 387.00 L 70.60 383.70 L 70.60 141.30 L 70.90 138.00 L 71.70 134.90 L 72.90 132.00 L 74.60 129.30 L 76.80 126.70 L 79.30 124.40 L 82.10 122.40 L 85.30 120.70 L 88.80 119.30 L 92.40 118.30 L 96.30 117.60 L 100.40 117.40 Z" fill="#f2f6fa" fill-rule="nonzero" group-id="1,16" node-id="351" stroke="none" target-height="290.2" target-width="328.3" target-x="70.6" target-y="117.4"></path></g><g node-id="678"><path d="M 711.40 185.80 L 898.30 185.80 L 901.40 186.10 L 904.30 186.90 L 907.00 188.10 L 909.40 189.90 L 911.40 191.90 L 913.20 194.30 L 914.40 197.00 L 915.20 199.90 L 915.50 203.00 L 915.50 304.30 L 915.20 307.40 L 914.40 310.30 L 913.20 313.00 L 911.40 315.40 L 909.40 317.40 L 907.00 319.20 L 904.30 320.40 L 901.40 321.20 L 898.30 321.50 L 711.40 321.50 L 708.30 321.20 L 705.40 320.40 L 702.70 319.20 L 700.30 317.40 L 698.30 315.40 L 696.50 313.00 L 695.30 310.30 L 694.50 307.40 L 694.20 304.30 L 694.20 203.00 L 694.50 199.90 L 695.30 197.00 L 696.50 194.30 L 698.30 191.90 L 700.30 189.90 L 702.70 188.10 L 705.40 186.90 L 708.30 186.10 L 711.40 185.80 Z" fill="#e6f1fc" fill-rule="nonzero" group-id="1,17" node-id="356" stroke="none" target-height="135.7" target-width="221.29999" target-x="694.2" target-y="185.8"></path></g><g node-id="679"><path d="M 582.70 105.50 L 776.30 105.50 L 779.60 105.80 L 782.60 106.60 L 785.30 107.90 L 787.80 109.70 L 789.90 111.80 L 791.70 114.30 L 793.00 117.10 L 793.80 120.10 L 794.10 123.30 L 794.10 228.20 L 793.80 231.50 L 793.00 234.50 L 791.70 237.20 L 789.90 239.70 L 787.80 241.80 L 785.30 243.60 L 782.50 244.90 L 779.50 245.70 L 776.30 246.00 L 582.70 246.00 L 579.40 245.70 L 576.40 244.90 L 573.70 243.60 L 571.20 241.80 L 569.10 239.70 L 567.30 237.20 L 566.00 234.40 L 565.20 231.40 L 564.90 228.20 L 564.90 123.30 L 565.20 120.10 L 566.00 117.10 L 567.30 114.30 L 569.10 111.80 L 571.20 109.70 L 573.70 107.90 L 576.50 106.60 L 579.50 105.80 L 582.70 105.50 Z" fill="#3583f0" fill-opacity="0.52" fill-rule="nonzero" group-id="1,18" node-id="361" stroke="none" target-height="140.5" target-width="229.19995" target-x="564.9" target-y="105.5"></path></g><g node-id="680"><path d="M 582.70 105.50 L 776.30 105.50 L 779.60 105.80 L 782.60 106.60 L 785.30 107.90 L 787.80 109.70 L 789.90 111.80 L 791.70 114.30 L 793.00 117.10 L 793.80 120.10 L 794.10 123.30 L 794.10 228.20 L 793.80 231.50 L 793.00 234.50 L 791.70 237.20 L 789.90 239.70 L 787.80 241.80 L 785.30 243.60 L 782.50 244.90 L 779.50 245.70 L 776.30 246.00 L 582.70 246.00 L 579.40 245.70 L 576.40 244.90 L 573.70 243.60 L 571.20 241.80 L 569.10 239.70 L 567.30 237.20 L 566.00 234.40 L 565.20 231.40 L 564.90 228.20 L 564.90 123.30 L 565.20 120.10 L 566.00 117.10 L 567.30 114.30 L 569.10 111.80 L 571.20 109.70 L 573.70 107.90 L 576.50 106.60 L 579.50 105.80 L 582.70 105.50 Z" fill="#bcd6f6" fill-rule="nonzero" group-id="1,19" node-id="366" stroke="none" target-height="140.5" target-width="229.19995" target-x="564.9" target-y="105.5"></path></g><g node-id="681"><g node-id="730"><path d="M 594.00 124.70 L 636.20 124.70 L 636.20 127.80 L 594.00 127.80 Z" fill="#3583f0" fill-opacity="0.52" fill-rule="nonzero" group-id="1,20,69" node-id="373" stroke="none" target-height="3.100006" target-width="42.200012" target-x="594" target-y="124.7"></path></g><g node-id="731"><path d="M 594.00 130.70 L 619.70 130.70 L 619.70 133.60 L 594.00 133.60 Z" fill="#3583f0" fill-opacity="0.52" fill-rule="nonzero" group-id="1,20,70" node-id="378" stroke="none" target-height="2.9000092" target-width="25.700012" target-x="594" target-y="130.7"></path></g><g node-id="732"><path d="M 630.10 130.70 L 711.00 130.70 L 711.00 133.60 L 630.10 133.60 Z" fill="#3583f0" fill-opacity="0.52" fill-rule="nonzero" group-id="1,20,71" node-id="383" stroke="none" target-height="2.9000092" target-width="80.900024" target-x="630.1" target-y="130.7"></path></g><g node-id="733"><path d="M 718.60 130.70 L 764.20 130.70 L 764.20 133.60 L 718.60 133.60 Z" fill="#3583f0" fill-opacity="0.52" fill-rule="nonzero" group-id="1,20,72" node-id="388" stroke="none" target-height="2.9000092" target-width="45.600037" target-x="718.6" target-y="130.7"></path></g><g node-id="734"><path d="M 607.40 136.70 L 642.80 136.70 L 642.80 139.80 L 607.40 139.80 Z" fill="#3583f0" fill-opacity="0.52" fill-rule="nonzero" group-id="1,20,73" node-id="393" stroke="none" target-height="3.100006" target-width="35.399963" target-x="607.4" target-y="136.7"></path></g><g node-id="735"><path d="M 618.70 142.70 L 660.90 142.70 L 660.90 145.80 L 618.70 145.80 Z" fill="#3583f0" fill-opacity="0.52" fill-rule="nonzero" group-id="1,20,74" node-id="398" stroke="none" target-height="3.100006" target-width="42.200012" target-x="618.7" target-y="142.7"></path></g><g node-id="736"><path d="M 663.60 142.70 L 698.90 142.70 L 698.90 146.10 L 663.60 146.10 Z" fill="#3583f0" fill-opacity="0.52" fill-rule="nonzero" group-id="1,20,75" node-id="403" stroke="none" target-height="3.4000092" target-width="35.30005" target-x="663.6" target-y="142.7"></path></g><g node-id="737"><path d="M 618.60 148.70 L 651.10 148.70 L 651.10 151.60 L 618.60 151.60 Z" fill="#3583f0" fill-opacity="0.52" fill-rule="nonzero" group-id="1,20,76" node-id="408" stroke="none" target-height="2.9000092" target-width="32.5" target-x="618.6" target-y="148.7"></path></g><g node-id="738"><path d="M 654.30 148.70 L 721.50 148.70 L 721.50 151.90 L 654.30 151.90 Z" fill="#3583f0" fill-opacity="0.52" fill-rule="nonzero" group-id="1,20,77" node-id="413" stroke="none" target-height="3.199997" target-width="67.20001" target-x="654.3" target-y="148.7"></path></g><g node-id="739"><path d="M 594.00 156.80 L 636.20 156.80 L 636.20 159.90 L 594.00 159.90 Z" fill="#3583f0" fill-opacity="0.52" fill-rule="nonzero" group-id="1,20,78" node-id="418" stroke="none" target-height="3.0999908" target-width="42.200012" target-x="594" target-y="156.8"></path></g><g node-id="740"><path d="M 594.00 162.80 L 619.70 162.80 L 619.70 165.70 L 594.00 165.70 Z" fill="#3583f0" fill-opacity="0.52" fill-rule="nonzero" group-id="1,20,79" node-id="423" stroke="none" target-height="2.899994" target-width="25.700012" target-x="594" target-y="162.8"></path></g><g node-id="741"><path d="M 630.10 162.80 L 711.00 162.80 L 711.00 165.70 L 630.10 165.70 Z" fill="#3583f0" fill-opacity="0.52" fill-rule="nonzero" group-id="1,20,80" node-id="428" stroke="none" target-height="2.899994" target-width="80.900024" target-x="630.1" target-y="162.8"></path></g><g node-id="742"><path d="M 718.60 162.80 L 764.20 162.80 L 764.20 165.70 L 718.60 165.70 Z" fill="#3583f0" fill-opacity="0.52" fill-rule="nonzero" group-id="1,20,81" node-id="433" stroke="none" target-height="2.899994" target-width="45.600037" target-x="718.6" target-y="162.8"></path></g><g node-id="743"><path d="M 607.40 168.70 L 642.80 168.70 L 642.80 171.80 L 607.40 171.80 Z" fill="#3583f0" fill-opacity="0.52" fill-rule="nonzero" group-id="1,20,82" node-id="438" stroke="none" target-height="3.100006" target-width="35.399963" target-x="607.4" target-y="168.7"></path></g><g node-id="744"><path d="M 618.70 174.70 L 660.90 174.70 L 660.90 177.80 L 618.70 177.80 Z" fill="#3583f0" fill-opacity="0.52" fill-rule="nonzero" group-id="1,20,83" node-id="443" stroke="none" target-height="3.100006" target-width="42.200012" target-x="618.7" target-y="174.7"></path></g><g node-id="745"><path d="M 663.60 174.70 L 698.90 174.70 L 698.90 178.10 L 663.60 178.10 Z" fill="#3583f0" fill-opacity="0.52" fill-rule="nonzero" group-id="1,20,84" node-id="448" stroke="none" target-height="3.4000092" target-width="35.30005" target-x="663.6" target-y="174.7"></path></g><g node-id="746"><path d="M 618.60 180.70 L 651.10 180.70 L 651.10 183.60 L 618.60 183.60 Z" fill="#3583f0" fill-opacity="0.52" fill-rule="nonzero" group-id="1,20,85" node-id="453" stroke="none" target-height="2.9000092" target-width="32.5" target-x="618.6" target-y="180.7"></path></g><g node-id="747"><path d="M 654.30 180.70 L 721.50 180.70 L 721.50 183.90 L 654.30 183.90 Z" fill="#3583f0" fill-opacity="0.52" fill-rule="nonzero" group-id="1,20,86" node-id="458" stroke="none" target-height="3.199997" target-width="67.20001" target-x="654.3" target-y="180.7"></path></g><g node-id="748"><path d="M 594.00 188.80 L 636.20 188.80 L 636.20 191.90 L 594.00 191.90 Z" fill="#3583f0" fill-opacity="0.52" fill-rule="nonzero" group-id="1,20,87" node-id="463" stroke="none" target-height="3.0999908" target-width="42.200012" target-x="594" target-y="188.8"></path></g><g node-id="749"><path d="M 594.00 194.80 L 619.70 194.80 L 619.70 197.70 L 594.00 197.70 Z" fill="#3583f0" fill-opacity="0.52" fill-rule="nonzero" group-id="1,20,88" node-id="468" stroke="none" target-height="2.899994" target-width="25.700012" target-x="594" target-y="194.8"></path></g><g node-id="750"><path d="M 630.10 194.80 L 711.00 194.80 L 711.00 197.70 L 630.10 197.70 Z" fill="#3583f0" fill-opacity="0.52" fill-rule="nonzero" group-id="1,20,89" node-id="473" stroke="none" target-height="2.899994" target-width="80.900024" target-x="630.1" target-y="194.8"></path></g><g node-id="751"><path d="M 718.60 194.80 L 764.20 194.80 L 764.20 197.70 L 718.60 197.70 Z" fill="#3583f0" fill-opacity="0.52" fill-rule="nonzero" group-id="1,20,90" node-id="478" stroke="none" target-height="2.899994" target-width="45.600037" target-x="718.6" target-y="194.8"></path></g><g node-id="752"><path d="M 607.40 200.80 L 642.80 200.80 L 642.80 203.90 L 607.40 203.90 Z" fill="#3583f0" fill-opacity="0.52" fill-rule="nonzero" group-id="1,20,91" node-id="483" stroke="none" target-height="3.0999908" target-width="35.399963" target-x="607.4" target-y="200.8"></path></g><g node-id="753"><path d="M 618.70 206.70 L 660.90 206.70 L 660.90 209.80 L 618.70 209.80 Z" fill="#3583f0" fill-opacity="0.52" fill-rule="nonzero" group-id="1,20,92" node-id="488" stroke="none" target-height="3.100006" target-width="42.200012" target-x="618.7" target-y="206.7"></path></g><g node-id="754"><path d="M 663.60 206.70 L 698.90 206.70 L 698.90 210.10 L 663.60 210.10 Z" fill="#3583f0" fill-opacity="0.52" fill-rule="nonzero" group-id="1,20,93" node-id="493" stroke="none" target-height="3.4000092" target-width="35.30005" target-x="663.6" target-y="206.7"></path></g><g node-id="755"><path d="M 618.60 212.70 L 651.10 212.70 L 651.10 215.60 L 618.60 215.60 Z" fill="#3583f0" fill-opacity="0.52" fill-rule="nonzero" group-id="1,20,94" node-id="498" stroke="none" target-height="2.9000092" target-width="32.5" target-x="618.6" target-y="212.7"></path></g><path d="M 654.30 212.70 L 721.50 212.70 L 721.50 215.90 L 654.30 215.90 Z" fill="#3583f0" fill-opacity="0.52" fill-rule="nonzero" group-id="1,20,95" node-id="503" stroke="none" target-height="3.199997" target-width="67.20001" target-x="654.3" target-y="212.7"></path></g><g node-id="682"><path d="M 121.80 218.90 L 183.10 187.30 L 183.10 196.50 L 131.50 222.30 L 131.50 222.60 L 183.10 248.50 L 183.10 257.70 L 121.80 226.00 L 121.80 218.90 Z" fill="#ff9c39" fill-rule="nonzero" group-id="1,21" node-id="509" stroke="none" target-height="70.40001" target-width="61.300003" target-x="121.8" target-y="187.3"></path></g><g node-id="683"><path d="M 191.60 262.90 L 228.50 167.00 L 237.50 167.00 L 200.60 262.90 L 191.60 262.90 Z" fill="#ff9c39" fill-rule="nonzero" group-id="1,22" node-id="514" stroke="none" target-height="95.899994" target-width="45.899994" target-x="191.6" target-y="167"></path></g><path d="M 307.20 226.40 L 245.90 257.80 L 245.90 248.40 L 297.90 222.50 L 297.90 222.10 L 245.90 196.20 L 245.90 187.20 L 307.20 218.60 L 307.20 226.40 Z" fill="#ff9c39" fill-rule="nonzero" group-id="1,23" node-id="519" stroke="none" target-height="70.59999" target-width="61.30002" target-x="245.9" target-y="187.2"></path></g><g node-id="663"><g node-id="685"><path d="M 727.20 533.20 L 300.50 533.20 L 300.50 408.50 L 300.80 400.40 L 301.80 392.50 L 303.30 384.90 L 305.50 377.50 L 308.20 370.30 L 311.40 363.50 L 315.10 356.90 L 319.30 350.70 L 324.00 344.80 L 329.10 339.30 L 334.60 334.20 L 340.50 329.50 L 346.70 325.30 L 353.20 321.50 L 360.10 318.30 L 367.30 315.60 L 374.60 313.40 L 382.20 311.90 L 390.00 310.90 L 398.10 310.60 L 640.10 310.60 L 648.20 310.90 L 656.00 311.90 L 663.60 313.40 L 670.90 315.60 L 678.10 318.30 L 685.00 321.50 L 691.50 325.30 L 697.70 329.50 L 703.60 334.20 L 709.10 339.30 L 714.20 344.80 L 718.90 350.70 L 723.10 356.90 L 726.80 363.50 L 730.00 370.30 L 732.70 377.50 L 734.90 384.90 L 736.40 392.50 L 737.40 400.40 L 737.70 408.50 L 737.70 522.80 L 737.00 526.50 L 735.10 529.50 L 732.40 531.80 L 730.80 532.60 L 727.20 533.20 Z" fill="#b2c7db" fill-rule="evenodd" group-id="2,24" node-id="527" stroke="none" target-height="222.6" target-width="437.2" target-x="300.5" target-y="310.6"></path></g></g><g node-id="664"><g node-id="686"><path d="M 725.40 513.00 L 288.30 513.00 L 288.30 407.30 L 288.60 399.30 L 289.60 391.50 L 291.10 384.00 L 293.30 376.70 L 296.00 369.60 L 299.20 362.80 L 302.90 356.40 L 307.10 350.20 L 311.80 344.40 L 316.90 338.90 L 322.40 333.90 L 328.30 329.30 L 334.50 325.10 L 341.00 321.40 L 347.90 318.20 L 355.10 315.50 L 362.40 313.40 L 370.00 311.90 L 377.80 310.90 L 385.90 310.60 L 627.90 310.60 L 636.00 310.90 L 643.80 311.90 L 651.40 313.40 L 658.70 315.50 L 665.90 318.20 L 672.80 321.40 L 679.30 325.10 L 685.50 329.30 L 691.40 333.90 L 696.90 338.90 L 702.00 344.40 L 706.70 350.20 L 710.90 356.40 L 714.60 362.80 L 717.80 369.60 L 720.50 376.70 L 722.70 384.00 L 724.20 391.50 L 725.20 399.30 L 725.50 407.30 L 725.40 513.00 Z" fill="#bcd6f6" fill-rule="evenodd" group-id="3,25" node-id="535" stroke="none" target-height="202.4" target-width="437.2" target-x="288.3" target-y="310.6"></path></g></g><g node-id="665"><g node-id="687"><path d="M 385.50 322.70 L 378.40 323.00 L 371.60 323.80 L 365.00 325.10 L 358.70 327.00 L 352.40 329.30 L 346.40 332.10 L 340.70 335.30 L 335.30 338.90 L 330.20 342.90 L 325.40 347.30 L 321.00 352.00 L 316.90 357.10 L 313.20 362.50 L 310.00 368.10 L 307.20 374.00 L 304.80 380.20 L 303.00 386.50 L 301.60 393.10 L 300.80 399.80 L 300.50 406.80 L 300.50 513.00 L 470.50 513.00 L 470.50 406.80 L 470.20 399.80 L 469.40 393.10 L 468.00 386.60 L 466.20 380.20 L 463.80 374.00 L 461.00 368.10 L 457.80 362.50 L 454.10 357.20 L 450.00 352.10 L 445.60 347.40 L 440.80 343.00 L 435.70 338.90 L 430.30 335.30 L 424.60 332.10 L 418.60 329.30 L 412.30 327.00 L 406.00 325.10 L 399.40 323.80 L 392.60 323.00 L 385.50 322.70 Z" fill="#fefefe" fill-rule="evenodd" group-id="4,26" node-id="543" stroke="none" target-height="190.29999" target-width="170" target-x="300.5" target-y="322.7"></path></g></g><g node-id="666"><g node-id="688"><path d="M 288.30 403.70 L 288.30 407.70 L 288.30 403.70 Z" fill="#e7eaf0" fill-rule="evenodd" group-id="5,27" node-id="551" stroke="none" target-height="4" target-width="0" target-x="288.3" target-y="403.7"></path></g></g><g node-id="667"><g node-id="689"><path d="M 713.40 403.70 L 713.40 407.70 Z" fill="#e7eaf0" fill-rule="evenodd" group-id="6,28" node-id="559" stroke="none" target-height="4" target-width="0" target-x="713.4" target-y="403.7"></path></g></g><g node-id="668"><g node-id="690"><g node-id="757"><g node-id="760"><g clip-path="url(#SVGID_00000075861604485434672050000010717748617165508254_)" group-id="7,29,96,99" node-id="569"><path d="M 385.50 310.60 L 386.50 310.60 L 386.50 403.70 L 385.50 403.70 Z" fill="#6c80aa" fill-opacity="0.09" fill-rule="nonzero" group-id="7,29,96,99" node-id="571" stroke="none" target-height="93.100006" target-width="1" target-x="385.5" target-y="310.6"></path></g></g><g node-id="761"><g clip-path="url(#SVGID_00000075861604485434672050000010717748617165508254_)" group-id="7,29,96,100" node-id="574"><path d="M 386.40 310.60 L 553.90 310.60 L 553.90 403.70 L 386.40 403.70 Z" fill="#6c80aa" fill-opacity="0.09" fill-rule="nonzero" group-id="7,29,96,100" node-id="576" stroke="none" target-height="93.100006" target-width="167.50003" target-x="386.4" target-y="310.6"></path></g></g><g clip-path="url(#SVGID_00000075861604485434672050000010717748617165508254_)" group-id="7,29,96,101" node-id="579"><path d="M 553.90 310.60 L 721.40 310.60 L 721.40 403.70 L 553.90 403.70 Z" fill="#5d6a86" fill-opacity="0.09" fill-rule="nonzero" group-id="7,29,96,101" node-id="581" stroke="none" target-height="93.100006" target-width="167.5" target-x="553.9" target-y="310.6"></path></g></g></g></g><g node-id="669"><g node-id="691"><path d="M 721.40 529.20 L 240.40 529.20 L 238.00 528.90 L 235.90 528.10 L 234.20 526.80 L 232.80 525.20 L 231.90 523.30 L 231.60 521.10 L 231.90 518.90 L 232.80 517.00 L 234.20 515.40 L 235.90 514.10 L 238.00 513.30 L 240.40 513.00 L 721.40 513.00 L 721.40 529.20 Z" fill="#88b6e5" fill-rule="evenodd" group-id="8,30" node-id="591" stroke="none" target-height="16.200012" target-width="489.80002" target-x="231.6" target-y="513"></path></g></g><g node-id="670"><g node-id="692"><path d="M 490.70 857.30 L 515.00 857.30 L 515.00 529.20 L 490.70 529.20 L 490.70 857.30 Z" fill="#b1c6d9" fill-rule="evenodd" group-id="9,31" node-id="599" stroke="none" target-height="328.09998" target-width="24.299988" target-x="490.7" target-y="529.2"></path></g></g><g node-id="671"><g node-id="693"><path d="M 539.50 553.50 L 454.00 553.50 L 451.10 553.20 L 448.40 552.60 L 445.90 551.50 L 443.70 550.00 L 441.80 548.20 L 440.20 546.20 L 439.00 543.80 L 438.30 541.30 L 438.00 538.60 L 438.00 529.20 L 555.40 529.20 L 555.40 538.60 L 555.10 541.30 L 554.40 543.80 L 553.20 546.10 L 551.70 548.20 L 549.80 550.00 L 547.50 551.50 L 545.10 552.60 L 542.40 553.20 L 539.50 553.50 Z" fill="#3a3a77" fill-rule="evenodd" group-id="10,32" node-id="607" stroke="none" target-height="24.299988" target-width="117.400024" target-x="438" target-y="529.2"></path></g></g><g node-id="672"><g node-id="694"><path d="M 746.70 844.40 L 746.70 773.10 L 699.10 773.10 L 699.10 844.40 L 699.40 845.30 L 720.20 857.50 L 721.50 858.00 L 723.10 858.10 L 726.10 857.30 L 745.20 846.30 L 746.20 845.50 L 746.70 844.40 Z" fill="#949fff" fill-rule="nonzero" group-id="11,33" node-id="615" stroke="none" target-height="85" target-width="47.600037" target-x="699.1" target-y="773.1"></path></g><g node-id="695"><path d="M 720.20 786.40 L 700.10 774.80 L 699.30 774.00 L 699.10 773.10 L 699.50 772.30 L 700.50 771.40 L 719.60 760.40 L 721.10 759.80 L 724.20 759.70 L 725.50 760.10 L 745.60 771.70 L 746.40 772.50 L 746.60 773.40 L 746.20 774.20 L 745.20 775.10 L 726.10 786.10 L 723.10 786.90 L 720.20 786.40 Z" fill="#dee6ff" fill-rule="nonzero" group-id="11,34" node-id="620" stroke="none" target-height="27.200012" target-width="47.5" target-x="699.1" target-y="759.7"></path></g><g node-id="696"><path d="M 115.50 842.70 L 115.50 668.50 L 67.90 668.50 L 67.90 842.70 L 68.20 843.60 L 68.90 844.20 L 89.00 855.80 L 90.30 856.30 L 91.90 856.40 L 94.90 855.60 L 114.00 844.60 L 114.90 843.80 L 115.50 842.70 Z" fill="#dee1f0" fill-rule="nonzero" group-id="11,35" node-id="625" stroke="none" target-height="187.90002" target-width="47.6" target-x="67.9" target-y="668.5"></path></g><g node-id="697"><g node-id="758"><path d="M 89.00 681.70 L 68.90 670.10 L 68.10 669.30 L 67.90 668.40 L 68.30 667.60 L 69.30 666.70 L 88.40 655.70 L 91.40 654.90 L 94.30 655.40 L 114.40 667.00 L 115.20 667.80 L 115.40 668.70 L 115.00 669.50 L 114.00 670.40 L 94.90 681.40 L 93.50 682.00 L 91.90 682.30 L 90.30 682.20 L 89.00 681.70 Z" fill="#fafbfd" fill-rule="nonzero" group-id="11,36,97" node-id="631" stroke="none" target-height="27.399963" target-width="47.5" target-x="67.9" target-y="654.9"></path></g></g><g node-id="698"><g node-id="759"><path d="M 985.50 867.10 L 38.50 867.10 L 38.80 860.90 L 39.60 858.00 L 40.80 855.40 L 42.50 853.00 L 44.50 851.00 L 46.90 849.30 L 49.50 848.10 L 52.40 847.30 L 55.50 847.00 L 968.50 847.00 L 971.60 847.30 L 974.50 848.10 L 977.10 849.30 L 979.50 851.00 L 981.50 853.00 L 983.20 855.40 L 984.40 858.00 L 985.20 860.90 L 985.50 867.10 Z" fill="#b2c7db" fill-rule="nonzero" group-id="11,37,98" node-id="639" stroke="none" target-height="20.099976" target-width="947" target-x="38.5" target-y="847"></path></g></g><g node-id="699"><path d="M 781.10 812.50 L 779.10 817.10 L 777.70 821.70 L 777.10 824.80 L 777.40 837.00 L 777.90 839.60 L 778.80 842.00 L 780.20 844.20 L 782.10 846.10 L 784.20 847.70 L 787.10 849.00 L 790.60 849.90 L 795.30 850.40 L 821.60 851.20 L 827.70 850.70 L 833.50 849.60 L 839.10 848.00 L 844.50 845.90 L 849.70 843.30 L 854.80 840.10 L 858.70 837.20 L 860.40 835.50 L 861.70 833.50 L 862.30 832.00 L 862.90 824.70 L 863.50 823.10 L 864.70 821.50 L 875.40 817.70 L 897.10 811.20 L 901.90 809.00 L 903.80 807.50 L 905.20 805.60 L 906.40 802.30 L 906.90 798.40 L 907.60 796.90 L 910.10 794.30 L 913.30 792.20 L 918.60 789.50 L 937.90 781.70 L 947.90 776.00 L 949.50 774.20 L 949.90 773.20 L 949.90 769.00 L 950.30 766.40 L 951.00 764.20 L 953.50 760.10 L 958.00 756.00 L 965.80 749.90 L 970.10 745.70 L 974.00 741.10 L 974.00 735.20 L 972.70 732.80 L 971.10 730.70 L 969.20 729.00 L 964.80 726.40 L 962.30 725.60 L 958.40 724.90 L 954.40 724.80 L 950.50 725.30 L 940.30 728.20 L 934.40 728.50 L 931.60 728.00 L 926.10 726.00 L 917.70 720.60 L 914.80 719.50 L 911.70 718.90 L 908.60 718.90 L 905.30 719.40 L 902.00 720.50 L 898.90 721.90 L 895.80 723.90 L 892.90 726.30 L 882.90 736.00 L 880.20 737.70 L 877.40 738.70 L 874.40 739.30 L 871.20 739.30 L 864.40 738.30 L 861.20 738.30 L 858.40 738.90 L 855.60 739.90 L 852.90 741.50 L 850.20 743.80 L 845.80 748.50 L 833.90 763.60 L 830.50 767.10 L 826.60 769.30 L 824.40 769.80 L 819.90 769.90 L 818.10 770.30 L 814.80 771.90 L 809.20 775.90 L 804.00 780.10 L 799.30 784.70 L 794.90 789.60 L 790.90 794.80 L 787.30 800.40 L 784.00 806.30 L 781.10 812.50" fill="#b1c6d9" fill-rule="nonzero" group-id="11,38" node-id="645" stroke="none" target-height="132.29999" target-width="196.90002" target-x="777.1" target-y="718.9"></path></g><g node-id="700"><path d="M 190.10 813.80 L 185.40 809.00 L 182.70 806.90 L 179.80 805.10 L 176.60 803.90 L 171.40 802.70 L 170.00 801.90 L 167.00 798.70 L 163.30 793.30 L 160.90 790.40 L 155.90 786.00 L 153.50 784.70 L 151.70 784.20 L 149.80 784.20 L 145.50 785.00 L 143.60 785.10 L 140.00 784.00 L 138.40 782.90 L 134.40 778.80 L 131.80 776.60 L 126.00 773.00 L 123.30 772.30 L 119.10 773.00 L 117.30 773.70 L 112.50 777.10 L 110.30 778.30 L 108.20 778.90 L 106.00 778.80 L 99.70 777.20 L 92.60 776.90 L 90.20 777.30 L 88.10 778.20 L 86.30 779.60 L 84.70 781.40 L 82.90 785.00 L 83.40 786.90 L 85.70 789.50 L 96.10 798.90 L 98.20 801.70 L 98.10 804.60 L 99.70 807.20 L 101.20 808.70 L 103.80 810.40 L 114.90 815.00 L 120.80 818.10 L 123.20 820.40 L 123.90 821.90 L 124.50 825.10 L 125.00 826.10 L 127.20 827.80 L 148.40 834.70 L 150.20 836.30 L 151.00 840.90 L 151.80 842.80 L 153.00 844.50 L 156.30 847.00 L 162.70 849.80 L 167.10 851.30 L 176.20 853.10 L 185.50 853.30 L 195.00 851.90 L 197.20 851.20 L 198.90 850.30 L 200.20 849.00 L 201.20 847.40 L 201.90 845.40 L 202.30 842.90 L 202.30 839.00 L 201.90 835.40 L 201.10 832.00 L 198.40 825.50 L 196.70 822.40 L 193.60 818.00 L 190.10 813.80 Z" fill="#b0c6da" fill-rule="nonzero" group-id="11,39" node-id="650" stroke="none" target-height="81" target-width="119.4" target-x="82.9" target-y="772.3"></path></g><g node-id="701"><path d="M 191.00 844.00 L 190.30 843.90 L 179.70 833.80 L 170.10 825.20 L 161.40 818.00 L 152.40 811.10 L 137.40 800.80 L 130.10 796.50 L 118.20 790.50 L 110.20 787.20 L 104.20 785.10 L 94.30 782.60 L 93.90 782.00 L 94.60 781.60 L 99.00 782.60 L 110.60 786.20 L 124.20 792.20 L 137.90 799.90 L 153.10 810.30 L 162.10 817.20 L 170.80 824.40 L 180.50 833.00 L 191.10 843.20 L 191.00 844.00 Z" fill="#95b4ce" fill-rule="nonzero" group-id="11,40" node-id="655" stroke="none" target-height="62.400024" target-width="97.200005" target-x="93.9" target-y="781.6"></path></g><path d="M 787.20 840.60 L 787.80 840.70 L 788.30 840.40 L 802.90 826.40 L 816.30 814.20 L 828.70 803.60 L 841.40 793.40 L 852.90 784.60 L 863.50 777.20 L 874.30 770.10 L 892.70 759.40 L 909.30 751.20 L 926.10 744.60 L 933.80 742.20 L 947.10 739.00 L 947.70 738.60 L 947.70 738.00 L 947.30 737.50 L 946.60 737.40 L 940.30 738.80 L 925.50 743.10 L 908.60 749.70 L 891.80 757.90 L 883.10 762.80 L 873.30 768.70 L 862.50 775.80 L 851.90 783.30 L 840.20 792.10 L 827.50 802.30 L 815.00 813.00 L 801.50 825.20 L 786.90 839.30 L 786.70 839.80 L 787.20 840.60 Z" fill="#95b4ce" fill-rule="nonzero" group-id="11,41" node-id="660" stroke="none" target-height="103.29999" target-width="161" target-x="786.7" target-y="737.4"></path></g></svg>