<?xml version="1.0" standalone="no"?><!DOCTYPE svg PUBLIC "-//W3C//DTD SVG 1.1//EN" "http://www.w3.org/Graphics/SVG/1.1/DTD/svg11.dtd"><svg t="1768984685921" class="icon" viewBox="0 0 1024 1024" version="1.1" xmlns="http://www.w3.org/2000/svg" p-id="18620" xmlns:xlink="http://www.w3.org/1999/xlink" width="256" height="256"><path d="M512.032768 0L0 512l512.032768 512L1024 512 512.032768 0z m223.905792 544h-191.93856v191.967232c0 17.688576-14.219264 32.032768-32 32.032768a31.9488 31.9488 0 0 1-32-32.032768v-191.967232H288.03072A31.92832 31.92832 0 0 1 256 512a31.973376 31.973376 0 0 1 32.03072-32.03072h191.96928v-191.93856c0-17.686528 14.219264-32.03072 32-32.03072 17.655808 0 32 14.219264 32 32v191.96928h191.93856c17.717248 0.03072 32.06144 14.219264 32.06144 32.03072 0 17.655808-14.219264 31.967232-32.06144 32z" fill="#2B8815" p-id="18621"></path></svg>