<?xml version="1.0" standalone="no"?><!DOCTYPE svg PUBLIC "-//W3C//DTD SVG 1.1//EN" "http://www.w3.org/Graphics/SVG/1.1/DTD/svg11.dtd"><svg t="1768901612654" class="icon" viewBox="0 0 1024 1024" version="1.1" xmlns="http://www.w3.org/2000/svg" p-id="25813" xmlns:xlink="http://www.w3.org/1999/xlink" width="256" height="256"><path d="M512 512m-501.55102 0a501.55102 501.55102 0 1 0 1003.10204 0 501.55102 501.55102 0 1 0-1003.10204 0Z" fill="#4FD3B4" p-id="25814"></path><path d="M492.690286 292.843102a20.897959 20.897959 0 1 1 40.730122 9.362286c-19.936653 86.83102-57.23951 156.77649-111.950367 209.313959-45.97551 44.13649-62.798367 123.465143-48.211592 239.323429a20.897959 20.897959 0 0 1-41.482449 5.224489c-16.049633-127.686531 3.469061-219.700245 60.750367-274.703673 48.545959-46.602449 81.961796-109.296327 100.163919-188.499592z" fill="#FFFFFF" p-id="25815"></path><path d="M531.288816 292.843102a20.897959 20.897959 0 1 0-40.75102 9.362286c19.957551 86.83102 57.260408 156.77649 111.971265 209.313959 45.97551 44.13649 62.777469 123.465143 48.211592 239.323429a20.897959 20.897959 0 1 0 41.482449 5.224489c16.049633-127.686531-3.469061-219.700245-60.750367-274.703673-48.545959-46.602449-81.961796-109.296327-100.163919-188.499592zM254.976 713.351837a20.897959 20.897959 0 0 1 29.549714-29.549715l68.127347 68.127347 68.127347-68.127347a20.897959 20.897959 0 0 1 27.585306-1.73453l1.964408 1.73453a20.897959 20.897959 0 0 1 0 29.549715l-82.902204 82.902204a20.897959 20.897959 0 0 1-29.549714 0L254.955102 713.351837z" fill="#FFFFFF" p-id="25816"></path><path d="M573.669878 713.351837a20.897959 20.897959 0 0 1 29.570612-29.549715l68.106449 68.127347 68.127347-68.127347a20.897959 20.897959 0 0 1 27.585306-1.73453l1.964408 1.73453a20.897959 20.897959 0 0 1 0 29.549715l-82.902204 82.902204a20.897959 20.897959 0 0 1-29.549714 0l-82.902204-82.902204zM671.346939 253.638531a20.897959 20.897959 0 1 1 0 41.795918h-318.693878a20.897959 20.897959 0 1 1 0-41.795918h318.693878z" fill="#FFFFFF" p-id="25817"></path></svg>