<?xml version="1.0" standalone="no"?><!DOCTYPE svg PUBLIC "-//W3C//DTD SVG 1.1//EN" "http://www.w3.org/Graphics/SVG/1.1/DTD/svg11.dtd"><svg t="1768903281363" class="icon" viewBox="0 0 1024 1024" version="1.1" xmlns="http://www.w3.org/2000/svg" p-id="48657" xmlns:xlink="http://www.w3.org/1999/xlink" width="256" height="256"><path d="M459.194 66.874c29.163-29.165 76.45-29.165 105.612-0.001l392.322 392.321c29.163 29.163 29.163 76.449 0 105.612L564.806 957.128c-29.163 29.163-76.448 29.163-105.611 0L66.874 564.807c-29.165-29.163-29.165-76.45 0-105.613z m60.356 45.253c-4.169-4.17-10.93-4.17-15.1 0L112.126 504.45c-4.17 4.17-4.17 10.931 0 15.101L504.45 911.873c4.169 4.17 10.932 4.17 15.101 0l392.322-392.322c4.17-4.17 4.17-10.932 0-15.102z m-11.186 187.217c17.496 0 31.713 14.042 31.996 31.471l0.004 0.53v148.78l148.786 0.001c17.673 0 32 14.327 32 32 0 17.496-14.042 31.713-31.47 31.996l-0.53 0.004H540.364v148.786c0 17.673-14.327 32-32 32-17.496 0-31.713-14.042-31.996-31.47l-0.004-0.53V544.126H327.583c-17.674 0-32-14.327-32-32 0-17.496 14.041-31.713 31.47-31.996l0.53-0.004h148.781V331.344c0-17.673 14.327-32 32-32z" p-id="48658" fill="#ffffff"></path></svg>