<?xml version="1.0" standalone="no"?><!DOCTYPE svg PUBLIC "-//W3C//DTD SVG 1.1//EN" "http://www.w3.org/Graphics/SVG/1.1/DTD/svg11.dtd"><svg t="1768903512772" class="icon" viewBox="0 0 1024 1024" version="1.1" xmlns="http://www.w3.org/2000/svg" p-id="49802" xmlns:xlink="http://www.w3.org/1999/xlink" width="256" height="256"><path d="M810.666667 128H213.333333c-46.933333 0-85.333333 38.4-85.333333 85.333333v597.333334c0 46.933333 38.4 85.333333 85.333333 85.333333h597.333334c46.933333 0 85.333333-38.4 85.333333-85.333333V213.333333c0-46.933333-38.4-85.333333-85.333333-85.333333z m0 640c0 23.466667-19.2 42.666667-42.666667 42.666667H256c-23.466667 0-42.666667-19.2-42.666667-42.666667V256c0-23.466667 19.2-42.666667 42.666667-42.666667h512c23.466667 0 42.666667 19.2 42.666667 42.666667v512z" fill="#ffffff" p-id="49803"></path><path d="M379.733333 648.533333l-119.466666-119.466666c-8.533333-8.533333-8.533333-21.333333 0-29.866667l119.466666-125.866667c8.533333-8.533333 21.333333-8.533333 29.866667 0l14.933333 14.933334c8.533333 8.533333 8.533333 21.333333 0 29.866666l-87.466666 91.733334c-2.133333 2.133333-2.133333 4.266667 0 6.4l85.333333 85.333333c8.533333 8.533333 8.533333 21.333333 0 29.866667l-14.933333 14.933333c-4.266667 10.666667-19.2 10.666667-27.733334 2.133333zM605.866667 648.533333l-14.933334-14.933333c-8.533333-8.533333-8.533333-21.333333 0-29.866667l85.333334-85.333333c2.133333-2.133333 2.133333-4.266667 0-6.4l-87.466667-91.733333c-8.533333-8.533333-8.533333-21.333333 0-29.866667l14.933333-14.933333c8.533333-8.533333 21.333333-8.533333 29.866667 0l119.466667 125.866666c8.533333 8.533333 8.533333 21.333333 0 29.866667l-119.466667 119.466667c-4.266667 6.4-19.2 6.4-27.733333-2.133334zM482.133333 684.8l-21.333333-4.266667c-10.666667-2.133333-19.2-14.933333-14.933333-25.6l72.533333-298.666666c2.133333-10.666667 14.933333-19.2 25.6-14.933334l21.333333 4.266667c10.666667 2.133333 19.2 14.933333 14.933334 25.6l-72.533334 298.666667c-2.133333 10.666667-14.933333 17.066667-25.6 14.933333z" fill="#ffffff" p-id="49804"></path></svg>